<svg width="148" height="82" viewBox="0 0 148 82" fill="none" xmlns="http://www.w3.org/2000/svg">
<g clip-path="url(#clip0_0_9)">
<path fillRule="evenodd" clip-rule="evenodd" d="M81.5 20.25C82.4565 20.2499 83.3769 20.6154 84.0728 21.2716C84.7688 21.9278 85.1876 22.8251 85.2438 23.78L85.25 24V27.75C85.25 28.55 84.7763 29.1737 84.1475 29.4588L84 29.5175V34C84.0002 34.6307 83.762 35.2382 83.3331 35.7007C82.9043 36.1632 82.3164 36.4464 81.6875 36.4938L81.5 36.5H66.5C65.8693 36.5002 65.2618 36.262 64.7993 35.8331C64.3368 35.4043 64.0536 34.8164 64.0063 34.1875L64 34V29.5188C63.6625 29.4012 63.3661 29.189 63.1459 28.9075C62.9258 28.626 62.7914 28.2871 62.7587 27.9313L62.75 27.75V24C62.7499 23.0435 63.1154 22.1231 63.7716 21.4272C64.4278 20.7312 65.3251 20.3124 66.28 20.2563L66.5 20.25H81.5ZM81.4163 28.625C81.2223 28.4795 80.9903 28.3935 80.7484 28.3775C80.5065 28.3615 80.2651 28.4163 80.0538 28.535L79.9163 28.625L79.5837 28.875C78.9704 29.3353 78.2306 29.5964 77.4642 29.6232C76.6978 29.6501 75.9416 29.4413 75.2975 29.025L75.0837 28.875L74.75 28.625C74.5561 28.4795 74.324 28.3935 74.0821 28.3775C73.8402 28.3615 73.5989 28.4163 73.3875 28.535L73.25 28.625L72.9163 28.875C72.303 29.335 71.5635 29.596 70.7973 29.6228C70.0312 29.6496 69.2752 29.441 68.6312 29.025L68.4163 28.875L68.0838 28.625C67.8898 28.4795 67.6578 28.3935 67.4159 28.3775C67.174 28.3615 66.9326 28.4163 66.7213 28.535L66.5837 28.625L66.5 28.6875V34H81.5V28.6875L81.4163 28.625ZM81.5 22.75H66.5C66.1685 22.75 65.8505 22.8817 65.6161 23.1161C65.3817 23.3505 65.25 23.6685 65.25 24V26.5063C65.8957 26.0749 66.6595 25.8546 67.4358 25.8759C68.2121 25.8972 68.9626 26.1589 69.5837 26.625L69.9162 26.875C70.1326 27.0373 70.3958 27.125 70.6663 27.125C70.9367 27.125 71.1999 27.0373 71.4162 26.875L71.75 26.625C72.3991 26.1382 73.1886 25.875 74 25.875C74.8114 25.875 75.6009 26.1382 76.25 26.625L76.5838 26.875C76.8001 27.0373 77.0633 27.125 77.3337 27.125C77.6042 27.125 77.8674 27.0373 78.0837 26.875L78.4163 26.625C79.0374 26.1589 79.7879 25.8972 80.5642 25.8759C81.3405 25.8546 82.1043 26.0749 82.75 26.5063V24C82.75 23.6685 82.6183 23.3505 82.3839 23.1161C82.1495 22.8817 81.8315 22.75 81.5 22.75ZM74.75 11.75C75.2668 12.1537 75.7466 12.6025 76.1838 13.0912C76.8387 13.8275 77.75 15.0687 77.75 16.5C77.75 17.4946 77.3549 18.4484 76.6517 19.1517C75.9484 19.8549 74.9946 20.25 74 20.25C73.0054 20.25 72.0516 19.8549 71.3483 19.1517C70.6451 18.4484 70.25 17.4946 70.25 16.5C70.25 15.0687 71.1625 13.8275 71.8162 13.0912C72.2534 12.6025 72.7332 12.1537 73.25 11.75C73.4664 11.5877 73.7295 11.5 74 11.5C74.2705 11.5 74.5336 11.5877 74.75 11.75ZM74 14.4175C73.8914 14.5261 73.7859 14.6378 73.6838 14.7525C73.0887 15.4225 72.75 16.0563 72.75 16.5C72.75 16.8315 72.8817 17.1495 73.1161 17.3839C73.3505 17.6183 73.6685 17.75 74 17.75C74.3315 17.75 74.6495 17.6183 74.8839 17.3839C75.1183 17.1495 75.25 16.8315 75.25 16.5C75.25 16.0563 74.9125 15.4225 74.3162 14.7525C74.2141 14.6378 74.1086 14.5261 74 14.4175Z" fill="#2B2E64"/>
</g>
<defs>
<clipPath id="clip0_0_9">
<rect width="30" height="30" fill="white" transform="translate(59 9)"/>
</clipPath>
</defs>
</svg>
