<svg width="148" height="82" viewBox="0 0 148 82" fill="none" xmlns="http://www.w3.org/2000/svg">
<path d="M66.5 33C66.075 33 65.7188 32.8563 65.4312 32.5688C65.1437 32.2812 65 31.925 65 31.5V28.5H84.5V15H87.5C87.925 15 88.2812 15.1437 88.5687 15.4312C88.8562 15.7188 89 16.075 89 16.5V39L83 33H66.5ZM59 31.5V10.5C59 10.075 59.1437 9.71875 59.4312 9.43125C59.7188 9.14375 60.075 9 60.5 9H80C80.425 9 80.7812 9.14375 81.0688 9.43125C81.3563 9.71875 81.5 10.075 81.5 10.5V24C81.5 24.425 81.3563 24.7813 81.0688 25.0688C80.7812 25.3563 80.425 25.5 80 25.5H65L59 31.5ZM78.5 22.5V12H62V22.5H78.5Z" fill="#2B2E64"/>
</svg>
