<svg width="523" height="252" viewBox="0 0 523 252" fill="none" xmlns="http://www.w3.org/2000/svg">
<path d="M14.3229 144.747C22.0566 110.626 62.7394 101.02 72.8561 91.0735C88.6217 75.5734 70.0441 48.9752 80.8811 29.699C91.7322 10.3978 122.097 -3.74447 143.738 0.883019C178.019 8.21308 190.152 30.284 228.628 34.4556C247.313 36.4816 256.828 27.8888 280.949 23.6584C299.738 20.3632 315.216 32.7489 327.649 30.9328C351.726 24.8221 353.836 2.69858 384.8 1.16484C411.122 -1.1588 420.64 11.0601 433.351 31.5006C454.967 66.2602 493.323 29.6992 513.231 75.3334C525.833 104.221 493.145 136.426 500.209 150.398C504.19 158.273 515.451 171.728 519.281 179.676C529.366 200.604 517.125 219.825 504.175 240.703L48.1519 238.797C47.6804 238.795 46.9662 238.591 46.5649 238.343C46.5649 238.343 -0.328206 209.389 14.3229 144.747Z" fill="#E3EAFF"/>
<path d="M358.777 224.453C365.607 226.912 372.961 225.304 380.838 219.629C371.306 217.773 363.953 219.381 358.777 224.453Z" fill="#A9B9EB"/>
<path d="M369.239 215.436C375.509 217.554 382.18 216.391 389.252 211.078C380.53 209.553 373.859 210.716 369.239 215.436Z" fill="#A9B9EB"/>
<path d="M379.145 206.838C385.417 207.259 391.156 204.169 396.361 197.57C387.978 198.276 382.24 201.365 379.145 206.838Z" fill="#A9B9EB"/>
<path d="M400.65 185.305C393.889 187.517 389.76 191.177 388.262 196.286C393.521 195.404 397.651 191.743 400.65 185.305Z" fill="#A9B9EB"/>
<path d="M400.335 175.645C395.094 178.472 392.234 182.096 391.758 186.517C395.95 185.02 398.809 181.396 400.335 175.645Z" fill="#A9B9EB"/>
<path d="M390.013 182.194C393.394 179.297 394.768 174.887 394.137 168.965C390.254 173.486 388.879 177.896 390.013 182.194Z" fill="#A9B9EB"/>
<path d="M362.335 202.134C357.045 210.383 355.826 217.884 358.678 224.638C363.506 219.147 364.725 211.645 362.335 202.134Z" fill="#A9B9EB"/>
<path d="M374.879 208.795C377.069 203.218 375.913 197.106 371.413 190.46C369.658 198.281 370.814 204.393 374.879 208.795Z" fill="#A9B9EB"/>
<path d="M378.232 183.674C376.699 190.48 377.704 195.798 381.247 199.627C383.156 194.776 382.151 189.458 378.232 183.674Z" fill="#A9B9EB"/>
<path d="M385.755 190.451C387.653 185.6 386.648 180.282 382.741 174.498C381.209 181.307 382.213 186.625 385.755 190.451Z" fill="#A9B9EB"/>
<path d="M346.483 233.164C361.251 224.022 359.813 224.031 367.822 217.045C369.988 215.16 371.999 213.249 373.858 211.314C377.616 207.302 380.928 202.893 383.736 198.166C387.14 192.692 389.104 188.277 389.627 184.921L389.851 184.543C389.954 184.462 389.984 184.318 389.922 184.202C389.935 184.074 389.895 183.945 389.81 183.847C389.695 183.777 389.564 183.735 389.429 183.724C389.301 183.711 389.172 183.751 389.074 183.836L388.866 184.019C388.798 184.137 388.755 184.267 388.738 184.402L388.679 184.421L388.659 184.717C388.077 187.985 386.147 192.275 382.87 197.587C380.06 202.246 376.748 206.583 372.995 210.521C371.129 212.519 369.162 214.418 367.1 216.213L366.561 216.678C370.137 211.138 370.227 204.287 366.83 196.124C363.213 204.183 363.123 211.034 366.561 216.678C358.652 223.495 360.324 223.284 345.924 232.193L346.483 233.164Z" fill="#A9B9EB"/>
<path d="M191.325 230.72C197.572 232.97 204.298 231.499 211.502 226.308C202.784 224.61 196.058 226.081 191.325 230.72Z" fill="#A9B9EB"/>
<path d="M200.865 222.132C206.804 223.295 212.66 221.041 218.432 215.37C210.34 215.04 204.485 217.294 200.865 222.132Z" fill="#A9B9EB"/>
<path d="M210.129 213.06C215.873 213.323 221.061 210.387 225.693 204.251C218.041 205.059 212.853 207.996 210.129 213.06Z" fill="#A9B9EB"/>
<path d="M229.074 193.2C222.891 195.223 219.114 198.571 217.743 203.243C222.554 202.437 226.331 199.089 229.074 193.2Z" fill="#A9B9EB"/>
<path d="M228.786 184.363C223.992 186.949 221.377 190.264 220.94 194.308C224.775 192.939 227.39 189.623 228.786 184.363Z" fill="#A9B9EB"/>
<path d="M219.344 190.354C222.436 187.704 223.694 183.671 223.117 178.254C219.565 182.39 218.307 186.423 219.344 190.354Z" fill="#A9B9EB"/>
<path d="M192.833 208.801C187.994 216.346 186.879 223.207 189.488 229.384C193.903 224.362 195.018 217.501 192.833 208.801Z" fill="#A9B9EB"/>
<path d="M205.797 213.599C207.8 208.497 206.743 202.907 202.627 196.828C201.022 203.982 202.078 209.572 205.797 213.599Z" fill="#A9B9EB"/>
<path d="M208.57 191.708C207.167 197.933 208.086 202.797 211.327 206.3C213.073 201.863 212.154 196.999 208.57 191.708Z" fill="#A9B9EB"/>
<path d="M215.45 197.908C217.186 193.471 216.267 188.607 212.693 183.316C211.292 189.544 212.211 194.408 215.45 197.908Z" fill="#A9B9EB"/>
<path d="M179.53 236.975C193.038 228.613 191.722 228.621 199.048 222.231C201.029 220.507 202.869 218.76 204.569 216.99C208.006 213.32 211.036 209.288 213.604 204.964C216.717 199.957 218.513 195.919 218.992 192.849L219.197 192.504C219.292 192.429 219.319 192.297 219.262 192.192C219.274 192.074 219.237 191.956 219.16 191.867C219.054 191.803 218.935 191.764 218.811 191.755C218.694 191.742 218.576 191.779 218.487 191.856L218.296 192.024C218.234 192.132 218.194 192.251 218.179 192.375L218.125 192.392L218.107 192.662C217.574 195.651 215.809 199.576 212.811 204.434C210.241 208.695 207.213 212.663 203.78 216.265C202.073 218.092 200.274 219.829 198.388 221.471L197.895 221.896C201.166 216.829 201.248 210.563 198.141 203.096C194.832 210.467 194.75 216.734 197.895 221.896C190.661 228.131 192.19 227.938 179.019 236.087L179.53 236.975Z" fill="#A9B9EB"/>
<path d="M29.3899 162.296C29.3899 162.296 26.1802 167.94 31.0373 178.117C35.9887 188.486 34.9608 195.667 34.9608 195.667L39.5532 199.67C39.5532 199.67 40.5709 188.743 36.1961 180.6C30.7075 170.414 29.3899 162.296 29.3899 162.296Z" fill="#A9B9EB"/>
<path d="M15.6191 165.307C15.6191 165.307 14.7189 170.009 20.2683 176.634C25.9383 183.381 26.8321 188.838 26.8321 188.838L30.6596 191.972C30.6596 191.972 29.0873 182.779 24.3047 177.562C18.3305 171.033 15.6191 165.307 15.6191 165.307Z" fill="#A9B9EB"/>
<path d="M39.3373 173.206C39.3373 173.206 43.522 176.183 46.0793 188.083C48.1648 197.78 45.9034 202.82 47.2177 208.763L41.3183 202.256C40.9995 198.046 43.7294 195.302 42.264 186.417C40.8946 178.098 39.3373 173.206 39.3373 173.206Z" fill="#A9B9EB"/>
<path d="M76.7775 209.464C76.7775 209.464 78.5944 214.285 74.0874 225.578C70.4153 234.794 65.579 235.975 64.6274 238.099L62.5988 233.407C65.2082 229.801 68.1135 230.267 71.8478 222.074C75.3437 214.385 76.7775 209.464 76.7775 209.464Z" fill="#A9B9EB"/>
<path d="M49.0917 180.717C49.0917 180.717 51.9059 189.128 52.5153 194.48C53.3959 202.086 50.3573 206.123 50.6988 213.957L56.7054 222.417C56.7054 222.417 58.6162 210.91 57.1545 201.568C54.7029 185.892 49.0917 180.717 49.0917 180.717Z" fill="#A9B9EB"/>
<path d="M63.5672 184.781C62.6858 189.679 62.5253 194.68 63.0905 199.624C64.9101 214.595 56.918 225.853 56.918 225.853L60.014 228.869C60.014 228.869 69.7422 221.062 67.8611 208.532C65.8583 195.293 63.5672 184.781 63.5672 184.781Z" fill="#A9B9EB"/>
<path d="M41.6291 203.319C41.6291 203.319 38.1108 202.042 23.4407 203.808C14.0398 204.943 16.8118 201.401 7.92725 204.025C14.6691 204.667 16.9336 209.613 25.7387 209.066C32.7806 208.623 39.8462 208.734 46.871 209.396L41.6291 203.319Z" fill="#A9B9EB"/>
<path d="M13.1356 212.659C13.1356 212.659 18.8419 219.95 31.8512 219.11C39.8585 218.613 47.893 219.438 55.6331 221.55L51.7555 214.967C51.7555 214.967 46.3959 211.016 32.9527 213.189C23.7166 214.68 13.1356 212.659 13.1356 212.659Z" fill="#A9B9EB"/>
<path d="M20.8021 225.08C20.8021 225.08 26.5083 232.371 39.5177 231.531C47.5249 231.034 55.5594 231.859 63.2995 233.971L59.422 227.388C59.422 227.388 54.0623 223.437 40.6192 225.61C31.3829 227.101 20.8021 225.08 20.8021 225.08Z" fill="#A9B9EB"/>
<path d="M4.11316 188.774C4.11316 188.774 8.23644 192.564 16.4378 191.724C24.7544 190.868 30.8521 192.701 30.8521 192.701L28.5305 190.236C28.5305 190.236 25.1431 187.738 16.6454 189.109C10.8019 190.049 4.11316 188.774 4.11316 188.774Z" fill="#A9B9EB"/>
<path d="M34.3513 196.736C34.3513 196.736 27.9547 196.043 18.5414 196.806C12.6011 197.269 4.73181 193.638 4.73181 193.638C4.73181 193.638 10.7603 202.191 19.6453 200.941C29.8337 199.506 39.8791 200.95 39.8791 200.95L34.3513 196.736Z" fill="#A9B9EB"/>
<path d="M29.1455 191.223C29.1455 191.223 23.8885 182.84 14.973 181.122C9.69803 180.059 4.63743 178.122 0 175.391C0 175.391 4.87753 184.04 13.23 184.734C20.9388 185.395 26.256 190.526 26.256 190.526L29.1455 191.223Z" fill="#A9B9EB"/>
<path d="M63.9056 238.244L65.2499 237.694C61.855 229.396 46.4826 202.409 26.9988 188.87L26.1702 190.065C45.383 203.418 60.5509 230.054 63.9056 238.244Z" fill="#A9B9EB"/>
<path d="M301.035 171.637C301.035 171.637 298.566 175.977 302.301 183.803C306.109 191.777 305.319 197.299 305.319 197.299L308.85 200.377C308.85 200.377 309.632 191.975 306.269 185.713C302.048 177.88 301.035 171.637 301.035 171.637Z" fill="#A9B9EB"/>
<path d="M290.445 173.952C290.445 173.952 289.753 177.568 294.021 182.663C298.381 187.851 299.068 192.047 299.068 192.047L302.011 194.458C302.011 194.458 300.802 187.388 297.124 183.376C292.53 178.356 290.445 173.952 290.445 173.952Z" fill="#A9B9EB"/>
<path d="M308.684 180.026C308.684 180.026 311.902 182.316 313.868 191.467C315.472 198.924 313.733 202.8 314.744 207.369L310.207 202.366C309.962 199.129 312.061 197.018 310.934 190.186C309.881 183.789 308.684 180.026 308.684 180.026Z" fill="#A9B9EB"/>
<path d="M337.475 207.907C337.475 207.907 338.872 211.615 335.406 220.299C332.583 227.386 328.864 228.294 328.132 229.928L326.572 226.32C328.578 223.546 330.812 223.905 333.684 217.604C336.372 211.691 337.475 207.907 337.475 207.907Z" fill="#A9B9EB"/>
<path d="M316.185 185.802C316.185 185.802 318.349 192.27 318.818 196.386C319.495 202.235 317.158 205.34 317.421 211.364L320.607 215.311C320.607 215.311 323.509 209.021 322.385 201.837C320.5 189.782 316.185 185.802 316.185 185.802Z" fill="#A9B9EB"/>
<path d="M327.924 189.146C327.246 192.912 327.123 196.758 327.557 200.56C328.957 212.072 322.811 220.73 322.811 220.73L325.192 223.049C325.192 223.049 332.673 217.046 331.226 207.41C329.686 197.229 327.924 189.146 327.924 189.146Z" fill="#A9B9EB"/>
<path d="M310.447 203.183C310.447 203.183 307.741 202.201 296.46 203.559C289.231 204.432 291.363 201.708 284.53 203.726C289.715 204.22 291.456 208.023 298.227 207.602C303.642 207.262 309.076 207.347 314.478 207.856L310.447 203.183Z" fill="#A9B9EB"/>
<path d="M288.534 210.367C288.534 210.367 292.922 215.973 302.926 215.328C309.084 214.945 315.263 215.579 321.214 217.203L318.233 212.141C318.233 212.141 314.111 209.103 303.774 210.774C296.671 211.921 288.534 210.367 288.534 210.367Z" fill="#A9B9EB"/>
<path d="M294.431 219.917C294.431 219.917 298.819 225.524 308.823 224.878C314.981 224.496 321.159 225.13 327.111 226.754L324.13 221.692C324.13 221.692 320.008 218.653 309.67 220.325C302.568 221.471 294.431 219.917 294.431 219.917Z" fill="#A9B9EB"/>
<path d="M281.597 191.997C281.597 191.997 284.768 194.911 291.075 194.266C297.47 193.607 302.159 195.017 302.159 195.017L300.374 193.121C300.374 193.121 297.769 191.201 291.234 192.255C286.741 192.978 281.597 191.997 281.597 191.997Z" fill="#A9B9EB"/>
<path d="M304.85 198.121C304.85 198.121 299.931 197.587 292.692 198.174C288.124 198.53 282.072 195.738 282.072 195.738C282.072 195.738 286.708 202.315 293.541 201.354C301.376 200.25 309.1 201.361 309.1 201.361L304.85 198.121Z" fill="#A9B9EB"/>
<path d="M300.847 193.882C300.847 193.882 296.804 187.435 289.949 186.114C285.892 185.297 282 183.808 278.434 181.707C278.434 181.707 282.185 188.358 288.608 188.892C294.536 189.4 298.625 193.346 298.625 193.346L300.847 193.882Z" fill="#A9B9EB"/>
<path d="M327.577 230.041L328.611 229.617C326.001 223.237 314.179 202.484 299.196 192.073L298.559 192.991C313.334 203.26 324.998 223.742 327.577 230.041Z" fill="#A9B9EB"/>
<path d="M432.559 187.647C432.559 187.647 433.817 192.43 428.253 198.968C422.581 205.63 421.933 211.116 421.933 211.116L417.77 213.162C417.77 213.162 419.158 204.921 423.97 199.785C430.002 193.364 432.559 187.647 432.559 187.647Z" fill="#A9B9EB"/>
<path d="M442.105 192.561C442.105 192.561 441.848 196.197 436.468 199.986C430.975 203.84 429.25 207.682 429.25 207.682L425.82 209.239C425.82 209.239 428.775 202.781 433.316 199.878C438.989 196.244 442.105 192.561 442.105 192.561Z" fill="#A9B9EB"/>
<path d="M423.106 193.728C423.106 193.728 419.444 195.099 415.234 203.356C411.803 210.084 412.482 214.237 410.352 218.353L415.966 214.72C417.024 211.684 415.552 209.13 418.368 202.878C421.003 197.024 423.106 193.728 423.106 193.728Z" fill="#A9B9EB"/>
<path d="M388.46 213.078C388.46 213.078 386.18 216.271 387.288 225.465C388.188 232.966 391.516 234.783 391.801 236.532L394.212 233.477C392.997 230.311 390.767 230.085 389.622 223.324C388.553 216.98 388.46 213.078 388.46 213.078Z" fill="#A9B9EB"/>
<path d="M414.456 197.346C414.456 197.346 410.74 202.985 409.245 206.804C407.11 212.229 408.556 215.796 406.773 221.495L402.72 224.46C402.72 224.46 401.542 217.701 404.445 211.112C409.315 200.055 414.456 197.346 414.456 197.346Z" fill="#A9B9EB"/>
<path d="M403.009 197.5C402.7 201.278 401.84 204.989 400.457 208.518C396.19 219.179 399.87 229.03 399.87 229.03L397.001 230.643C397.001 230.643 391.369 222.992 395.204 214.139C399.267 204.788 403.009 197.5 403.009 197.5Z" fill="#A9B9EB"/>
<path d="M415.528 215.442C415.528 215.442 418.367 215.191 428.818 219.365C435.515 222.042 434.168 218.892 440.193 222.563C435.106 221.715 432.472 224.911 426.099 222.784C421.003 221.079 415.781 219.776 410.482 218.888L415.528 215.442Z" fill="#A9B9EB"/>
<path d="M434.672 227.897C434.672 227.897 429.047 232.145 419.637 228.979C413.841 227.045 407.767 226.078 401.657 226.116L405.799 222.031C405.799 222.031 410.516 220.173 419.984 224.406C426.49 227.312 434.672 227.897 434.672 227.897Z" fill="#A9B9EB"/>
<path d="M426.602 235.536C426.602 235.536 420.976 239.784 411.566 236.618C405.77 234.683 399.696 233.716 393.587 233.755L397.728 229.669C397.728 229.669 402.445 227.812 411.914 232.044C418.419 234.951 426.602 235.536 426.602 235.536Z" fill="#A9B9EB"/>
<path d="M445.984 212.085C445.984 212.085 442.208 214.067 436.337 211.842C430.384 209.583 425.538 209.738 425.538 209.738L427.728 208.378C427.728 208.378 430.71 207.204 436.695 209.877C440.812 211.714 445.984 212.085 445.984 212.085Z" fill="#A9B9EB"/>
<path d="M422.173 212.023C422.173 212.023 427.016 212.765 433.795 215.171C438.076 216.675 444.578 215.544 444.578 215.544C444.578 215.544 438.468 220.658 432.174 217.998C424.956 214.946 417.281 214.041 417.281 214.041L422.173 212.023Z" fill="#A9B9EB"/>
<path d="M427.082 208.985C427.082 208.985 432.591 203.845 439.488 204.327C443.578 204.578 447.681 204.144 451.628 203.042C451.628 203.042 446.347 208.452 440.064 207.326C434.262 206.303 429.345 209.038 429.345 209.038L427.082 208.985Z" fill="#A9B9EB"/>
<path d="M392.304 236.782L391.422 236.114C395.544 230.672 412.135 213.822 429.122 207.674L429.498 208.716C412.747 214.78 396.375 231.411 392.304 236.782Z" fill="#A9B9EB"/>
<path d="M216.226 65.4698C215.465 64.125 214.535 62.7519 213.459 61.3884C213.05 60.8711 213.138 60.1203 213.655 59.7115C214.172 59.3027 214.923 59.3909 215.331 59.9084C216.483 61.3676 217.482 62.8432 218.302 64.2945C218.627 64.8685 218.425 65.5969 217.851 65.9215C217.717 65.9975 217.575 66.0445 217.431 66.0649C216.96 66.1313 216.474 65.9098 216.226 65.4698ZM210.141 57.6947C208.951 56.5249 207.69 55.4299 206.393 54.4402C205.869 54.0403 205.768 53.2911 206.168 52.7668C206.567 52.2424 207.316 52.1415 207.84 52.5414C209.216 53.5912 210.553 54.7521 211.813 55.9916C212.283 56.4538 212.29 57.2097 211.828 57.68C211.637 57.8747 211.395 57.99 211.144 58.0253C210.79 58.0754 210.416 57.9655 210.141 57.6947ZM149.769 61.4705C149.112 61.5123 148.545 61.0126 148.503 60.3546C148.461 59.6965 148.961 59.1291 149.618 59.0873C151.172 58.9886 152.835 58.7787 154.55 58.4653C155.199 58.3469 155.82 58.7767 155.938 59.4254C156.056 60.074 155.627 60.696 154.979 60.8144C154.311 60.9366 153.644 61.045 152.996 61.1364C151.893 61.2921 150.807 61.4046 149.769 61.4705ZM158.596 58.8092C158.422 58.1732 158.796 57.5164 159.432 57.3422C160.988 56.9157 162.604 56.4105 164.236 55.8402C164.859 55.6226 165.539 55.9515 165.756 56.574C165.973 57.1965 165.645 57.8775 165.023 58.0948C163.339 58.6828 161.67 59.2045 160.062 59.6453C160.012 59.6591 159.962 59.6693 159.912 59.6764C159.327 59.7591 158.757 59.3951 158.596 58.8092ZM144.462 61.3879C142.557 61.1868 140.786 60.785 139.198 60.1937C138.581 59.9639 138.266 59.2763 138.496 58.6583C138.726 58.0402 139.413 57.7256 140.03 57.9556C141.431 58.4772 143.006 58.8329 144.712 59.013C145.368 59.0822 145.843 59.6699 145.774 60.3256C145.715 60.8816 145.284 61.3081 144.755 61.3828C144.66 61.3964 144.562 61.3984 144.462 61.3879ZM202.267 51.7156C200.791 50.8874 199.29 50.1989 197.805 49.6696C197.185 49.4482 196.861 48.7653 197.082 48.1441C197.303 47.523 197.986 47.1989 198.606 47.4203C200.217 47.9946 201.841 48.7392 203.434 49.6329C204.009 49.9554 204.213 50.683 203.891 51.2582C203.701 51.5963 203.372 51.8064 203.016 51.8567C202.766 51.892 202.503 51.8486 202.267 51.7156ZM168.304 55.5972C168.052 54.9881 168.34 54.2894 168.949 54.0367C170.479 53.4013 172.031 52.7088 173.562 51.9781C174.157 51.6944 174.869 51.9469 175.153 52.5421C175.436 53.1374 175.184 53.85 174.589 54.1337C173.021 54.8818 171.431 55.5913 169.863 56.2422C169.768 56.282 169.67 56.3083 169.572 56.3222C169.047 56.3966 168.517 56.1105 168.304 55.5972ZM177.586 51.3058C177.273 50.7257 177.489 50.0012 178.069 49.6879C178.625 49.3871 179.171 49.0852 179.704 48.7834C180.703 48.2183 181.737 47.73 182.776 47.3324C183.392 47.0968 184.081 47.4054 184.316 48.0213C184.552 48.6372 184.243 49.3274 183.628 49.563C182.699 49.9183 181.774 50.3554 180.879 50.8623C180.332 51.1715 179.773 51.4808 179.202 51.789C179.074 51.8582 178.939 51.9018 178.802 51.9209C178.322 51.9889 177.83 51.7575 177.586 51.3058ZM134.439 57.4488C133.199 56.4022 132.127 55.1444 131.252 53.7102C130.909 53.1474 131.087 52.4126 131.649 52.0689C132.211 51.7253 132.946 51.9029 133.289 52.4659C134.03 53.6805 134.935 54.7429 135.978 55.6239C136.481 56.0491 136.545 56.8025 136.12 57.3063C135.923 57.5398 135.656 57.679 135.375 57.7186C135.051 57.7644 134.709 57.6771 134.439 57.4488ZM193.092 48.5042C191.467 48.2837 189.851 48.2591 188.287 48.4312C187.632 48.5034 187.043 48.0304 186.971 47.3749C186.899 46.7193 187.372 46.1295 188.026 46.0575C189.783 45.8641 191.595 45.8912 193.412 46.1378C194.065 46.2264 194.523 46.828 194.434 47.4815C194.361 48.0232 193.935 48.4306 193.419 48.5035C193.314 48.5187 193.203 48.5194 193.092 48.5042Z" fill="#F8F9FC"/>
<path d="M218.79 61.387L216.512 66.6092L244.188 80.4067L218.79 61.387Z" fill="#BDCDFF"/>
<path d="M214.697 72.7488L216.987 78.0636L242.953 79.7633L214.697 72.7488Z" fill="#BDCDFF"/>
<path d="M244.188 80.4051L199.517 71.7169L213.563 64.4932L244.188 80.4051Z" fill="#F8F9FC"/>
<path d="M218.79 61.3858L244.187 80.4055L227.526 56.1917L218.79 61.3858Z" fill="#F8F9FC"/>
<path d="M276.423 251.706C410.55 251.706 519.282 246.633 519.282 240.376C519.282 234.118 410.55 229.045 276.423 229.045C142.295 229.045 33.5635 234.118 33.5635 240.376C33.5635 246.633 142.295 251.706 276.423 251.706Z" fill="#95A6DB"/>
<path d="M156.704 239.588L72.708 239.641C64.89 239.646 57.7699 233.307 56.805 225.482L33.6702 37.8876C32.7052 30.0629 38.2607 23.7158 46.0789 23.7109L130.075 23.6577C137.893 23.6526 145.013 29.9918 145.978 37.8165L169.113 225.411C170.078 233.236 164.522 239.583 156.704 239.588Z" fill="#264591"/>
<path d="M164.506 239.588L80.5098 239.641C72.6918 239.646 65.5717 233.307 64.6067 225.482L41.4718 37.8876C40.5069 30.0629 46.0624 23.7158 53.8805 23.7109L137.877 23.6577C145.695 23.6526 152.815 29.9918 153.78 37.8165L176.915 225.411C177.88 233.236 172.324 239.583 164.506 239.588Z" fill="#5E7CDB"/>
<path d="M160.35 233.613L83.1915 233.662C77.0935 233.665 71.5399 228.721 70.7873 222.618L48.5176 42.0385C47.7648 35.9353 52.0982 30.9846 58.1962 30.9807L135.354 30.9319C141.452 30.928 147.006 35.8726 147.759 41.9757L170.028 222.555C170.781 228.658 166.448 233.609 160.35 233.613Z" fill="#F8F9FC"/>
<path d="M157.074 225.511L84.433 225.558C79.723 225.561 75.4336 221.743 74.8522 217.028L72.9611 201.683L72.1447 195.054L70.571 182.288L58.445 83.8683L53.8271 46.3893C53.2457 41.6757 56.5923 37.8506 61.3023 37.848L72.351 37.8425L72.564 39.5673C72.9585 42.7403 75.8447 45.3097 79.0167 45.3068L120.137 45.2628C123.307 45.2601 125.559 42.6839 125.166 39.5108L124.955 37.808L133.945 37.8025C138.654 37.7984 142.943 41.6193 143.526 46.3329L144.793 56.6171L164.55 216.97C165.132 221.686 161.784 225.509 157.074 225.511Z" fill="#95A6DB"/>
<path d="M115.523 41.9337H80.835C79.7171 41.9337 78.6994 41.0267 78.5621 39.908C78.4248 38.789 79.2198 37.8821 80.3379 37.8821H115.026C116.144 37.8821 117.161 38.789 117.299 39.908C117.436 41.0267 116.641 41.9337 115.523 41.9337Z" fill="#8197DB"/>
<path d="M157.075 225.51L84.4333 225.557C79.7233 225.56 75.4339 221.742 74.8525 217.027L72.9614 201.682L164.55 216.969C165.133 221.685 161.785 225.508 157.075 225.51Z" fill="#8197DB"/>
<path d="M144.793 56.6161L58.4446 83.8673L53.8267 46.3883C53.2454 41.6747 56.592 37.8497 61.302 37.847L72.3506 37.8415L72.5636 39.5663C72.9581 42.7393 75.8443 45.3087 79.0163 45.3059L120.136 45.2618C123.307 45.2591 125.558 42.6829 125.165 39.5098L124.955 37.807L133.945 37.8015C138.653 37.7974 142.943 41.6183 143.526 46.3319L144.793 56.6161Z" fill="#8197DB"/>
<path d="M310.385 159.452L307.732 158.661L309.838 153.449L313.311 154.104L310.385 159.452Z" fill="#DE623C"/>
<path d="M313.608 159.026C313.785 156.183 317.161 154.534 317.317 155.564C317.499 156.769 317.019 158.57 317.019 158.57C317.806 158.959 321.425 157.591 319.816 153.004L321.061 151.031L318.384 148.881L316.614 149.944C311.054 151.332 310.247 153.103 310.048 157.512C309.851 161.849 313.442 161.698 313.608 159.026Z" fill="#F37A50"/>
<path d="M316.924 155.852C316.835 155.887 316.743 155.902 316.651 155.908C316.657 155.923 316.664 155.937 316.67 155.952C317.026 156.847 316.793 157.779 316.152 158.034C316.046 158.076 315.936 158.095 315.825 158.097C315.849 158.709 315.601 159.237 315.143 159.419C314.961 159.491 314.766 159.499 314.571 159.456C314.635 160.066 314.363 160.635 313.85 160.839C313.209 161.094 312.442 160.681 312.139 159.917C311.836 159.153 312.111 158.327 312.752 158.072C312.915 158.008 313.085 157.986 313.254 158.003C313.033 157.192 313.276 156.408 313.857 156.178C313.962 156.136 314.072 156.117 314.184 156.115C314.159 155.503 314.407 154.975 314.865 154.793C315.034 154.726 315.215 154.714 315.395 154.747C315.314 154.208 315.546 153.694 315.997 153.515C316.539 153.3 317.186 153.649 317.442 154.294C317.698 154.939 317.466 155.637 316.924 155.852Z" fill="#DE623C"/>
<path d="M312.016 151.813C312.151 151.037 312.929 149.459 314.328 149.309C315.726 149.16 317.626 151.763 316.501 151.813C315.376 151.863 314.465 150.895 314.465 150.895L312.016 151.813Z" fill="#DE623C"/>
<path d="M360.107 94.7975C351.945 94.821 343.63 98.1004 343.834 113.686C344.039 129.272 342.676 144.178 338.369 146.474C342.458 150.425 371.324 158.719 382.854 148.173C377.725 141.93 374.82 120.756 374.82 115.011C374.82 107.185 372.636 94.7611 360.107 94.7975Z" fill="#201D40"/>
<path d="M366.587 233.11C366.215 229.399 370.674 201.274 370.674 201.274C376.085 176.446 371.413 158.558 371.413 158.558L356.601 171.878L360.187 196.672C360.187 196.672 359.535 198.476 359.19 199.918C357.323 207.739 359.183 217.086 360.333 223.316C360.866 226.203 361.694 232.271 361.716 233.65L359.38 236.672C359.38 236.672 367.835 246.037 369.136 246.096C371.664 246.21 370.919 243.704 370.919 243.704C367.444 240.132 366.693 234.172 366.587 233.11Z" fill="#F37A50"/>
<path d="M359.235 239.991L359.7 246.007L360.78 246.056L361.327 240.468C364.204 241.203 366.264 246.427 366.264 246.427C368.245 247.138 373.281 247.626 375.074 246.702C375.507 244.944 370.911 243.711 370.911 243.711C370.496 244.203 368.043 244.58 367.172 244.053C363.964 241.32 362.4 237.345 361.716 233.649C361.716 233.65 356.647 234.003 359.235 239.991Z" fill="#201D40"/>
<path d="M347.345 164.306C343.203 174.562 342.69 189.585 342.424 194.885C333.057 196.508 314.716 210.371 314.716 210.371L311.316 210.544C311.316 210.544 309.893 221.708 310.609 222.623C312 224.401 313.262 222.441 313.262 222.441C313.658 218.014 316.473 214.8 317.049 214.041C317.913 212.901 346.119 205.934 351.694 203.553C357.269 201.171 362.503 165.312 362.503 165.312L347.345 164.306Z" fill="#F37A50"/>
<path d="M308.988 212.373L305.19 216.182L305.784 216.942L309.88 214.067C311.053 216.442 308.718 220.871 308.718 220.871C309.387 222.626 311.982 226.319 313.648 226.996C315.088 226.268 313.252 222.441 313.252 222.441C312.678 222.445 310.999 221.003 310.85 220.107C310.835 216.347 312.614 212.98 314.716 210.371C314.716 210.371 311.533 207.144 308.988 212.373Z" fill="#201D40"/>
<path d="M368.159 124.031C368.159 124.031 376.285 130.567 382.854 139.031C384.663 142.028 386.443 147.545 386.443 147.545C384.178 148.319 364.386 132.519 364.386 132.519C364.386 132.519 361.755 131.227 362.711 127.861C363.743 124.23 368.159 124.031 368.159 124.031Z" fill="#F37A50"/>
<path d="M362.009 118.989L356.347 118.14L356.798 123.401C356.798 123.401 359.666 128.572 362.387 127.682C365.108 126.791 363.78 124.506 363.78 124.506L362.009 118.989Z" fill="#DE623C"/>
<path d="M353.95 113.658C356.198 119.866 359.629 122.756 364.595 121.691C368.698 120.811 372.03 114.153 370.282 107.923C368.534 101.694 363.154 97.7571 358.265 99.1309C353.376 100.505 351.748 107.574 353.95 113.658Z" fill="#F37A50"/>
<path d="M359.086 111.179C359.152 111.15 359.21 111.099 359.246 111.029C359.774 110.019 361.077 109.879 361.09 109.878C361.272 109.86 361.406 109.698 361.389 109.515C361.371 109.332 361.083 109.03 360.743 109.098C360.676 109.112 359.287 109.26 358.59 110.595C358.505 110.758 358.635 111.084 358.798 111.169C358.891 111.218 358.996 111.219 359.086 111.179Z" fill="#201D40"/>
<path d="M369.214 108.852C369.245 108.835 369.274 108.813 369.3 108.785C369.423 108.649 369.414 108.439 369.279 108.315C368.226 107.352 366.993 107.816 366.942 107.836C366.771 107.903 366.686 108.096 366.752 108.267C366.818 108.438 367.01 108.523 367.181 108.457C367.221 108.442 368.09 108.129 368.83 108.806C368.938 108.905 369.093 108.919 369.214 108.852Z" fill="#201D40"/>
<path d="M365.04 112.138C365.52 112.595 365.943 113.068 366.395 113.329C366.547 113.417 366.602 113.613 366.522 113.769C366.19 114.414 365.172 114.974 364.546 115.27C364.454 115.313 364.373 115.194 364.446 115.124C365.067 114.535 365.327 114.109 365.434 113.877C365.488 113.761 365.481 113.628 365.419 113.516C365.277 113.261 364.994 112.74 364.8 112.307C364.733 112.157 364.922 112.025 365.04 112.138Z" fill="#DE623C"/>
<path d="M362.224 117.746C362.031 117.583 362.124 117.269 362.376 117.24C363.015 117.168 364.066 117.027 365.047 116.796C366.028 116.565 367.032 116.222 367.636 116.001C367.874 115.914 368.097 116.153 367.997 116.386C367.69 117.101 366.975 118.244 365.471 118.599C363.968 118.953 362.818 118.249 362.224 117.746Z" fill="#F8F9FC"/>
<path d="M350.464 113.796C356.324 112.778 364.325 105.725 364.882 102.616C363.599 98.9582 359.435 96.613 356.073 98.461C352.712 100.309 347.788 109.234 350.464 113.796Z" fill="#201D40"/>
<path d="M362.947 105.04C362.947 105.04 366.758 106.822 370.413 107.185C368.641 103.182 367.351 100.14 365.09 99.39C362.829 98.6398 360.454 98.7618 360.454 98.7618L362.947 105.04Z" fill="#201D40"/>
<path d="M355.48 111.384C356.715 112.271 357.129 113.81 356.403 114.822C355.678 115.833 354.088 115.934 352.853 115.047C351.618 114.16 351.205 112.621 351.93 111.609C352.655 110.598 354.245 110.496 355.48 111.384Z" fill="#F37A50"/>
<path d="M354.921 114.593C354.965 114.569 355.004 114.535 355.035 114.491C355.471 113.86 355.488 113.169 355.079 112.644C354.66 112.105 353.913 111.881 353.302 112.109C353.13 112.174 353.043 112.365 353.107 112.538C353.171 112.71 353.363 112.797 353.535 112.733C353.87 112.607 354.317 112.748 354.554 113.052C354.782 113.345 354.758 113.721 354.488 114.112C354.384 114.263 354.421 114.47 354.572 114.575C354.679 114.649 354.814 114.652 354.921 114.593Z" fill="#DE623C"/>
<path d="M366.724 110.281C366.787 110.778 367.241 111.13 367.738 111.067C368.235 111.004 368.587 110.549 368.523 110.052C368.46 109.554 368.006 109.202 367.509 109.266C367.012 109.329 366.66 109.784 366.724 110.281Z" fill="black"/>
<path d="M360.115 112.155C360.182 112.686 360.667 113.061 361.197 112.993C361.727 112.926 362.102 112.441 362.035 111.91C361.968 111.38 361.483 111.004 360.953 111.072C360.422 111.139 360.047 111.624 360.115 112.155Z" fill="black"/>
<path d="M380.546 122.279C380.095 129.806 381.619 138.891 381.331 143.632L386.443 147.546C389.149 143.773 387.665 132.41 384.402 124.847C383.111 123.158 380.546 122.279 380.546 122.279Z" fill="#F37A50"/>
<path d="M384.055 117.21C384.055 117.21 385.377 119.954 385.958 122.474C385.941 122.531 384.829 124.125 384.404 124.844C382.83 123.969 381.567 123.526 380.402 122.395C380.92 118.225 383.668 117.215 384.055 117.21Z" fill="#DE623C"/>
<path d="M384.727 126.94C383.525 127.171 382.363 126.383 382.132 125.181L380.116 114.693L384.469 113.855L386.485 124.342C386.716 125.545 385.929 126.708 384.727 126.94Z" fill="#494C7F"/>
<path d="M386.492 122.632C386.429 122.554 386.353 122.493 386.273 122.44C386.286 122.43 386.3 122.42 386.313 122.41C387.096 121.779 387.364 120.813 386.911 120.251C386.837 120.159 386.747 120.085 386.647 120.026C386.983 119.482 387.029 118.875 386.706 118.473C386.578 118.314 386.405 118.206 386.206 118.145C386.577 117.624 386.622 116.966 386.261 116.517C385.808 115.956 384.9 115.937 384.232 116.475C383.564 117.013 383.389 117.905 383.841 118.467C383.956 118.609 384.099 118.716 384.261 118.789C383.644 119.411 383.463 120.249 383.872 120.757C383.946 120.849 384.036 120.923 384.136 120.982C383.8 121.527 383.754 122.134 384.077 122.535C384.196 122.683 384.354 122.786 384.535 122.85C384.184 123.298 384.131 123.884 384.449 124.278C384.831 124.753 385.598 124.769 386.162 124.314C386.726 123.859 386.874 123.106 386.492 122.632Z" fill="#F37A50"/>
<path d="M380.273 122.424C379.583 121.345 379.131 118.152 381.496 116.757C384.21 115.156 383.155 117.445 382.528 117.957C380.839 119.336 382.248 120.442 381.61 121.665C381.275 122.308 380.716 123.117 380.273 122.424Z" fill="#F37A50"/>
<path d="M391.202 90.5281C391.202 90.5281 387.832 100.444 380.51 104.904C380.749 105.462 385.445 113.444 385.445 113.444C385.445 113.444 394.675 111.594 403.589 114.143C400.007 108.568 391.202 90.5281 391.202 90.5281Z" fill="#95A6DB"/>
<path d="M401.507 100.025C404.876 106.753 406.048 112.99 404.124 113.955C402.2 114.92 397.908 110.248 394.539 103.519C391.17 96.7907 389.998 90.5536 391.922 89.5889C393.846 88.6238 398.138 93.2961 401.507 100.025Z" fill="#494C7F"/>
<path d="M380.911 104.651C379.161 105.448 373.622 108.053 375.823 112.969C377.588 116.911 382.98 114.931 385.445 113.444C384.433 111.72 380.911 104.651 380.911 104.651Z" fill="#494C7F"/>
<path d="M392.765 99.5164C392.765 99.5164 396.505 97.3392 398.654 100.605C400.405 103.711 397.013 105.938 395.978 106.177C394.881 104.844 392.765 99.5164 392.765 99.5164Z" fill="#768FDB"/>
<path d="M340.15 193.837C341.485 189.369 340.018 163.193 351.798 154.497L372.069 156.634C376.753 164.223 375.685 185.446 376.285 203.574C353.433 209.511 356.348 192.738 340.15 193.837Z" fill="#E62552"/>
<path d="M372.318 151.629C372.318 147.186 376.165 140.531 374.321 136.046C372.978 132.438 370.339 124.3 367.463 123.75C366.296 123.527 364.837 123.402 363.4 123.304C363.4 123.304 364.244 127.072 362.344 127.224C358.689 127.518 356.767 122.827 356.767 122.827C354.796 122.639 347.922 124.692 347.927 125.435C347.948 131.254 350.505 140.665 352.05 146.957C352.337 150.16 352.11 152.645 351.79 154.458C351.204 156.348 350.489 157.43 350.485 157.839C350.485 157.839 364.035 162.446 372.657 157.696C372.657 157.696 372.318 154.629 372.318 151.629Z" fill="#E62552"/>
<path d="M320.725 151.304C326.84 146.677 330.397 140.91 333.215 137.088L327.648 131.974C324.374 135.307 321.06 141.928 318.088 149.057C318.253 151.177 320.725 151.304 320.725 151.304Z" fill="#F37A50"/>
<path d="M353.062 132.895C353.062 132.895 340.15 137.407 333.215 137.087C329.793 136.357 327.648 131.973 327.648 131.973L349.412 124.204C349.412 124.204 352.154 123.168 353.952 126.169C355.892 129.406 353.062 132.895 353.062 132.895Z" fill="#F37A50"/>
<path d="M444.713 96.7167C444.299 91.0756 445.928 86.0921 450.423 83.5543C454.978 80.9818 460.685 83.5047 460.685 83.5047C460.685 83.5047 465.515 81.785 469.893 86.6107C474.271 91.4367 470.959 95.6833 472.75 99.2029C473.811 101.287 479.203 101.717 477.81 108.506C477.409 110.464 475.056 111.781 473.063 111.913C469.561 112.143 466.3 110.788 464.881 112.143C460.203 116.607 449.838 114.992 448.387 110.909C447.938 109.643 438.614 112.093 439.544 103.469C440.015 99.0992 445.083 101.757 444.713 96.7167Z" fill="#2C2858"/>
<path d="M473.129 124.483C477.867 122.047 488.739 117.947 493.321 113.469L486.284 108.461C486.284 108.461 470.201 113.71 466.619 115.619C463.883 117.853 467.79 123.409 473.129 124.483Z" fill="#F5A3B7"/>
<path d="M499.886 81.4346C498.161 79.189 497.193 80.7453 496.297 81.2078C493.8 82.4982 495.532 76.6081 492.783 77.4173C493.516 81.5828 491.837 81.4828 493.103 85.5008L492.807 87.171L496.827 90.1294L497.276 88.2859C499.868 87.1204 502.67 84.9513 499.886 81.4346Z" fill="#DE623C"/>
<path d="M500.507 82.348C499.956 80.9923 498.994 80.3468 498.544 80.1303C498.006 79.8864 496.375 80.4729 496.104 81.0984C495.833 81.7238 496.027 82.3977 496.524 82.648C496.658 82.7089 496.786 82.7296 496.948 82.7031C496.724 83.3623 496.917 84.0361 497.368 84.2527C497.455 84.2799 497.542 84.3072 497.63 84.3343C497.588 84.839 497.789 85.3042 498.145 85.4532C498.279 85.5141 498.447 85.5281 498.568 85.5082C498.473 85.9388 498.61 86.5752 498.966 86.7243C499.311 87.2024 499.983 86.9711 500.371 86.5711C501.162 85.7532 501.44 84.6435 500.507 82.348Z" fill="#F37A50"/>
<path d="M492.635 86.7083C492.635 86.7083 487.711 102.268 486.284 108.461C485.718 110.921 491.379 113.087 493.321 113.469C495.419 111.407 496.827 106.292 497.484 89.154C496.012 87.4661 492.635 86.7083 492.635 86.7083Z" fill="#F5A3B7"/>
<path d="M446.902 124.484C441.579 122.978 429.285 116.989 424.703 112.512L430.17 107.378C430.17 107.378 445.926 111.748 449.508 113.656C449.86 116.943 449.578 122.511 446.902 124.484Z" fill="#F5A3B7"/>
<path d="M417.304 79.4267C419.028 77.181 419.997 78.737 420.893 79.1999C423.39 80.4902 421.658 74.6002 424.406 75.4092C423.674 79.5745 425.353 79.4745 424.087 83.4927L424.383 85.1632L420.363 88.1214L419.914 86.278C417.322 85.1123 414.52 82.9431 417.304 79.4267Z" fill="#DE623C"/>
<path d="M416.681 80.3398C417.233 78.9842 418.194 78.3387 418.645 78.1222C419.182 77.8783 420.813 78.4648 421.084 79.0904C421.355 79.7156 421.162 80.3895 420.665 80.6399C420.53 80.7009 420.402 80.7214 420.241 80.6948C420.465 81.3541 420.271 82.0279 419.821 82.2445C419.734 82.2717 419.646 82.2988 419.559 82.3261C419.6 82.8309 419.4 83.296 419.044 83.445C418.909 83.5059 418.741 83.5199 418.62 83.5C418.715 83.9306 418.578 84.5671 418.222 84.7162C417.877 85.1941 417.205 84.9629 416.818 84.5629C416.026 83.7452 415.748 82.6354 416.681 80.3398Z" fill="#F37A50"/>
<path d="M424.554 84.7002C424.554 84.7002 429.432 100.994 430.859 107.187C431.425 109.646 426.646 112.129 424.705 112.512C424.107 110.208 419.541 103.841 419.706 87.1459C421.178 85.4577 424.554 84.7002 424.554 84.7002Z" fill="#F5A3B7"/>
<path d="M454.288 103.842V116.752C454.288 116.752 459.078 119.047 463.229 116.752C462.59 113.883 462.211 104.744 462.211 104.744L454.288 103.842Z" fill="#DE623C"/>
<path d="M449.011 113.657H454.288C454.288 113.657 456.538 117.397 459.768 117.108C462.997 116.819 462.8 113.657 462.8 113.657L469.305 114.521C469.305 114.521 474.313 123.268 473.542 130.243C472.723 137.654 467.475 140.672 467.758 151.94C459.497 154.541 451.284 154.541 445.551 147.688C447.626 139.81 447.738 133.394 446.108 123.907C446.958 119.365 449.011 113.657 449.011 113.657Z" fill="#F5A3B7"/>
<path d="M468.877 99.0296C468.877 105.799 464.798 111.286 459.767 111.286C454.735 111.286 450.656 105.799 450.656 99.0296C450.656 92.2606 454.735 86.7732 459.767 86.7732C464.798 86.7732 468.877 92.2606 468.877 99.0296Z" fill="#F37A50"/>
<path d="M450.05 99.0296C455.08 98.3861 459.756 95.5814 462.397 91.9572C464.103 96.1933 468.877 99.0296 468.877 99.0296C468.877 99.0296 472.455 90.9266 465.948 86.5555C459.74 82.3854 444.929 85.2346 450.05 99.0296Z" fill="#2C2858"/>
<path d="M455.934 101.644C455.399 101.644 454.966 101.21 454.966 100.675C454.966 100.14 455.399 99.7063 455.934 99.7063C456.469 99.7063 456.902 100.14 456.902 100.675C456.902 101.21 456.469 101.644 455.934 101.644Z" fill="black"/>
<path d="M463.651 101.644C463.116 101.644 462.683 101.21 462.683 100.675C462.683 100.14 463.116 99.7063 463.651 99.7063C464.186 99.7063 464.619 100.14 464.619 100.675C464.619 101.21 464.186 101.644 463.651 101.644Z" fill="black"/>
<path d="M465.356 99.804C465.197 99.8041 465.043 99.7226 464.956 99.5759C464.717 99.1724 464.427 98.9304 464.095 98.857C463.521 98.7299 462.952 99.1132 462.947 99.1172C462.735 99.2618 462.446 99.2091 462.301 98.9987C462.155 98.7882 462.206 98.5002 462.415 98.3535C462.451 98.3281 463.311 97.7357 464.285 97.9459C464.883 98.0751 465.378 98.4638 465.756 99.1014C465.887 99.3223 465.814 99.6078 465.593 99.7389C465.518 99.7831 465.437 99.804 465.356 99.804Z" fill="#2C2858"/>
<path d="M454.097 99.8486C453.995 99.8486 453.892 99.8152 453.807 99.7464C453.606 99.5858 453.574 99.2928 453.735 99.0923C454.346 98.3286 455.022 97.9131 455.745 97.8571C456.678 97.7848 457.32 98.3605 457.346 98.3852C457.536 98.5586 457.549 98.8529 457.376 99.0426C457.203 99.2313 456.911 99.2453 456.722 99.0748C456.708 99.0631 456.327 98.7406 455.805 98.7861C455.353 98.8257 454.9 99.1246 454.46 99.6743C454.369 99.7889 454.233 99.8486 454.097 99.8486Z" fill="#2C2858"/>
<path d="M460.728 101.948C461.98 102.851 462.371 103.222 462.854 103.524C462.52 104.643 460.767 105.198 460.268 105.069C461.49 104.467 461.662 103.65 461.662 103.65L460.728 101.948Z" fill="#DE623C"/>
<path d="M450.04 98.7683C450.04 98.7683 449.206 87.5476 460.268 86.9934C465.07 86.7529 468.288 90.1312 468.288 90.1312C468.288 90.1312 466.053 84.5827 459.051 85.2118C452.139 85.7836 447.13 90.6229 450.04 98.7683Z" fill="#C4204A"/>
<path d="M452.017 99.9753C453.061 101.298 453.113 102.999 452.133 103.773C451.153 104.548 449.513 104.103 448.469 102.779C447.424 101.456 447.373 99.7558 448.352 98.9814C449.332 98.207 450.973 98.652 452.017 99.9753Z" fill="#F37A50"/>
<path d="M451.1 102.834C451.06 102.834 451.019 102.826 450.98 102.81C450.822 102.743 450.748 102.561 450.815 102.403C451.036 101.879 451.041 101.457 450.83 101.149C450.503 100.674 449.733 100.527 449.173 100.546C449.002 100.552 448.858 100.417 448.853 100.246C448.847 100.075 448.981 99.9315 449.152 99.9257C449.903 99.9008 450.873 100.117 451.341 100.797C451.574 101.137 451.771 101.733 451.386 102.645C451.336 102.763 451.221 102.834 451.1 102.834Z" fill="#DE623C"/>
<path d="M457.35 106.723C457.221 106.511 457.405 106.247 457.648 106.298C458.267 106.429 459.291 106.623 460.278 106.711C461.264 106.799 462.307 106.79 462.938 106.771C463.187 106.764 463.321 107.056 463.156 107.242C462.648 107.814 461.628 108.659 460.116 108.524C458.604 108.389 457.749 107.376 457.35 106.723Z" fill="#F8F9FC"/>
<path d="M454.287 113.471C454.287 113.471 456.16 116.808 459.497 117.123C458.758 118.399 457.99 119.366 456.405 118.988C453.432 118.28 454.287 113.471 454.287 113.471Z" fill="#F8F9FC"/>
<path d="M462.8 113.657C462.59 114.49 462.986 116.882 459.497 117.122C459.841 117.759 460.549 119.611 462.598 118.95C464.939 118.194 463.711 114.132 462.8 113.657Z" fill="#F8F9FC"/>
<path d="M421.753 172.753L417.782 177.106C417.782 177.106 415.555 177.556 413.952 178.23C413.646 178.359 413.362 178.496 413.122 178.639C413.113 178.644 413.104 178.65 413.096 178.655C412.802 178.833 412.419 179.056 411.977 179.29C411.72 179.427 411.442 179.568 411.151 179.707C409.404 180.537 407.168 181.278 405.783 180.529C402.641 176.529 407.49 171.634 411.495 169.798C415.502 167.963 416.749 165.256 418.661 165.86C420.574 166.465 421.753 172.753 421.753 172.753Z" fill="#494C7F"/>
<path d="M419.529 171.002C420.308 171.571 423.159 173.895 423.159 173.895L419.288 179.566C419.288 179.566 418.545 178.424 416.811 176.795C413.213 173.416 417.676 169.648 419.529 171.002Z" fill="#F37A50"/>
<path d="M444.272 190.791C438.369 181.214 422.326 172.091 422.326 172.091C422.326 172.091 419.602 175.729 418.447 179.777C418.447 179.777 432.949 195.457 437.173 199.736C441.438 202.959 447.222 196.571 444.272 190.791Z" fill="#4364CC"/>
<path d="M453.119 207.614L449.933 212.229L455.025 214.144L458.276 210.477L453.119 207.614Z" fill="#F37A50"/>
<path d="M467.461 158.651L452.909 166.658C452.909 166.658 467.453 186.74 476.199 191.562C477.722 192.402 486.043 187.528 485.939 185.778C485.559 179.401 467.461 158.651 467.461 158.651Z" fill="#4364CC"/>
<path d="M474.958 182.369C473.365 182.175 453.119 207.615 453.119 207.615C453.119 207.615 456.468 210.499 459.976 211.797C474.203 198.087 481.318 192.541 486.006 187.054C487.732 182.628 480.966 179.287 474.958 182.369Z" fill="#4364CC"/>
<path d="M459.353 162.797C459.353 162.797 446.352 148.656 442.627 152.244C438.902 155.832 438.096 184.845 435.994 195.734C434.944 201.171 442.948 203.078 444.835 200.441C448.24 195.682 459.353 162.797 459.353 162.797Z" fill="#768FDB"/>
<path d="M460.787 223.732C454.545 221.817 450.223 218.127 448.207 216.106C447.446 215.344 447.431 214.115 448.175 213.335C449.199 212.26 450.498 210.954 451.335 210.198C451.5 210.048 451.647 209.921 451.77 209.821L456.602 212.364L456.797 212.467C456.669 213.456 456.884 214.309 457.29 215.072C457.416 215.313 457.563 215.545 457.725 215.77C457.936 216.065 458.172 216.349 458.422 216.623C458.606 216.825 458.798 217.023 458.993 217.217C461.047 219.261 463.407 220.887 460.787 223.732Z" fill="#494C7F"/>
<path d="M440.466 160.547C440.466 160.547 439.587 154.653 445.551 147.688C450.583 151.66 455.615 154.111 467.758 151.941C468.741 158.208 468.208 160.009 468.208 160.009L458.04 165.775L440.466 160.547Z" fill="#768FDB"/>
<path d="M217.013 170.148C217.013 170.148 214.839 169.587 215.525 168.895C216.626 167.785 216.687 169.325 217.853 169.561C218.887 169.769 217.316 164.641 212.314 165.49C211.588 165.614 210.19 164.365 210.19 164.365L208.62 168.128L208.722 168.907C208.684 171.782 210.072 172.651 211.192 173.338L217.013 170.148Z" fill="#DE623C"/>
<path d="M181.165 129.575C177.285 135.421 180.24 144.479 187.04 159.126C193.161 158.786 194.563 154.718 194.563 154.718C194.563 154.718 193.113 141.108 191.873 137.014C188.899 127.189 183.035 126.757 181.165 129.575Z" fill="#0E6A41"/>
<path d="M210.519 164.363L194.562 154.718L187.04 159.126C191.43 163.063 196.966 166.57 208.595 169.23C210.107 167.185 210.519 164.363 210.519 164.363Z" fill="#0E6A41"/>
<path d="M130.021 176.462L126.003 180.866C126.003 180.866 123.75 181.322 122.127 182.004C121.817 182.135 121.531 182.273 121.287 182.419C121.279 182.423 121.27 182.429 121.261 182.434C120.964 182.614 120.576 182.84 120.129 183.077C119.869 183.216 119.587 183.358 119.293 183.499C117.525 184.339 115.262 185.089 113.861 184.33C110.682 180.283 115.588 175.33 119.641 173.472C123.696 171.615 124.958 168.875 126.893 169.487C128.829 170.099 130.021 176.462 130.021 176.462Z" fill="#181630"/>
<path d="M122.127 182.005C121.818 182.135 121.531 182.274 121.287 182.419L120.111 179.468C120.015 179.228 120.132 178.956 120.371 178.861C120.436 178.836 120.502 178.825 120.567 178.828C120.744 178.837 120.908 178.947 120.977 179.121L122.127 182.005Z" fill="#F8F9FC"/>
<path d="M120.129 183.076C119.869 183.214 119.587 183.357 119.293 183.498L118.32 181.061C118.225 180.82 118.342 180.549 118.581 180.453C118.645 180.427 118.712 180.417 118.776 180.42C118.953 180.429 119.118 180.538 119.187 180.714L120.129 183.076Z" fill="#F8F9FC"/>
<path d="M127.773 174.689C128.561 175.265 131.447 177.617 131.447 177.617L127.529 183.356C127.529 183.356 126.777 182.2 125.022 180.552C121.381 177.133 125.898 173.319 127.773 174.689Z" fill="#F37A50"/>
<path d="M152.81 194.715C146.836 185.024 130.602 175.792 130.602 175.792C130.602 175.792 127.845 179.473 126.676 183.57C126.676 183.57 141.352 199.437 145.626 203.768C149.941 207.028 155.795 200.564 152.81 194.715Z" fill="#C4204A"/>
<path d="M187.918 231.259L189.845 236.598L194.413 233.526L193.305 228.69L187.918 231.259Z" fill="#F37A50"/>
<path d="M174.696 164.364L159.196 170.862C159.196 170.862 171.683 192.627 179.969 198.417C181.411 199.425 190.306 195.411 190.388 193.64C190.688 187.182 174.696 164.364 174.696 164.364Z" fill="#C4204A"/>
<path d="M179.969 198.418C178.873 199.617 187.917 231.259 187.917 231.259C187.917 231.259 192.259 230.193 195.39 228.064C192.465 208.278 192.08 199.152 190.319 192.062C187.69 188.038 180.963 191.653 179.969 198.418Z" fill="#C4204A"/>
<path d="M168.071 166.439C168.071 166.439 156.34 155.408 152.57 159.039C148.8 162.67 146.56 188.751 144.433 199.769C143.371 205.271 151.47 207.201 153.379 204.533C156.825 199.716 168.071 166.439 168.071 166.439Z" fill="#E62552"/>
<path d="M187.981 101.19C189.762 96.0547 186.852 88.8805 181.162 90.1302C175.473 91.3798 172.116 93.2168 170.131 86.3141C168.55 80.8171 161.576 77.453 154.217 80.6044C144.802 84.6361 151.257 89.5968 145.96 90.0744C140.662 90.5521 135.528 91.5967 138.254 98.3979C140.98 105.199 148.852 108.018 156.169 103.953C163.486 99.8883 162.772 105.995 167.167 105.802C173.417 105.527 187.981 101.19 187.981 101.19Z" fill="#201D40"/>
<path d="M177.003 107.875C174.573 114.288 176.684 121.035 181.716 122.945C186.749 124.855 192.799 121.205 195.229 114.792C197.659 108.379 195.549 101.631 190.516 99.7216C185.483 97.8117 179.433 101.462 177.003 107.875Z" fill="#F37A50"/>
<path d="M177.731 115.422L183.522 122.319C183.522 122.319 183.058 126.089 183.037 126.62C182.947 128.859 180.077 128.775 178.364 126.729C176.652 124.682 175.767 122.373 175.767 122.373L177.731 115.422Z" fill="#F37A50"/>
<path d="M195.952 113.627C194.262 112.818 185.458 106.684 184.985 104.505C183.526 108.72 175.461 111.153 175.072 109.612C174.992 100.786 179.596 94.9646 188.881 96.4503C201.612 98.4876 195.952 113.627 195.952 113.627Z" fill="#2C2858"/>
<path d="M183.665 112.785C183.786 113.369 184.358 113.744 184.942 113.622C185.525 113.5 185.9 112.928 185.778 112.344C185.657 111.76 185.085 111.385 184.501 111.507C183.918 111.628 183.543 112.201 183.665 112.785Z" fill="black"/>
<path d="M190.774 115.317C190.888 115.865 191.425 116.217 191.973 116.103C192.521 115.989 192.872 115.452 192.758 114.903C192.644 114.355 192.107 114.003 191.559 114.117C191.012 114.231 190.66 114.768 190.774 115.317Z" fill="black"/>
<path d="M194.134 114.281C194.175 114.278 194.217 114.268 194.258 114.249C194.456 114.158 194.549 113.903 194.464 113.68C193.807 111.948 192.263 111.807 192.197 111.802C191.983 111.785 191.798 111.966 191.786 112.206C191.773 112.446 191.937 112.654 192.152 112.672C192.202 112.677 193.283 112.793 193.746 114.011C193.813 114.188 193.972 114.292 194.134 114.281Z" fill="#2C2858"/>
<path d="M183.391 110.505C183.361 110.476 183.336 110.44 183.318 110.399C183.227 110.201 183.323 109.947 183.533 109.834C185.16 108.951 186.422 109.852 186.475 109.891C186.649 110.018 186.671 110.276 186.523 110.466C186.376 110.656 186.116 110.707 185.942 110.58C185.9 110.551 185.006 109.933 183.861 110.554C183.695 110.644 183.507 110.619 183.391 110.505Z" fill="#2C2858"/>
<path d="M189.801 115.736C189.866 116.47 189.872 117.177 190.058 117.727C190.12 117.912 190.023 118.116 189.841 118.188C189.09 118.483 187.828 118.202 187.088 117.989C186.98 117.958 186.999 117.799 187.112 117.794C188.063 117.759 188.593 117.594 188.853 117.478C188.983 117.421 189.075 117.305 189.105 117.166C189.174 116.848 189.32 116.205 189.476 115.7C189.529 115.525 189.784 115.554 189.801 115.736Z" fill="#DE623C"/>
<path d="M178.437 111.316C179.089 112.791 178.639 114.419 177.433 114.953C176.227 115.487 174.72 114.723 174.069 113.248C173.417 111.773 173.867 110.145 175.073 109.611C176.279 109.077 177.785 109.84 178.437 111.316Z" fill="#F37A50"/>
<path d="M176.753 113.685C176.805 113.674 176.855 113.651 176.899 113.616C177.537 113.111 177.767 112.416 177.514 111.757C177.256 111.082 176.567 110.623 175.877 110.666C175.683 110.678 175.535 110.846 175.547 111.04C175.559 111.235 175.727 111.382 175.921 111.37C176.299 111.346 176.71 111.627 176.856 112.009C176.997 112.376 176.857 112.75 176.462 113.063C176.309 113.184 176.284 113.406 176.405 113.559C176.49 113.667 176.627 113.711 176.753 113.685Z" fill="#DE623C"/>
<path d="M178.023 168.322C163.37 168.491 151.198 160.392 151.198 160.392C151.87 158.7 153.659 155.271 158.436 150.352C159.655 145.136 162.222 133.07 163.091 130.125C167.476 122.987 168.938 125.314 168.907 121.171L175.852 122.127C175.852 122.127 177.1 126.88 180.932 127.75C183.328 128.293 183.089 125.68 183.089 125.68C183.089 125.68 186.466 128.32 187.371 129.373C187.371 129.373 189.431 138.369 188.858 140.859C187.814 145.399 180.688 157.604 180.688 157.604C180.688 157.604 177.913 167.016 178.023 168.322Z" fill="#3F964F"/>
<path d="M137.131 155.785C137.034 154.071 137.093 151.592 138.055 151.743C139.6 151.986 140.106 152.571 141.254 152.884C142.272 153.162 141.784 151.264 138.195 148.287L138.337 146.908L134.632 145.693L134.53 146.342C132.083 147.708 130.795 151.164 132.13 154.758C132.701 156.294 137.261 158.071 137.131 155.785Z" fill="#F37A50"/>
<path d="M173.552 123.648C168.591 118.688 159.665 120.456 143.976 124.239C143.746 128.782 145.009 132.368 145.009 132.368C145.009 132.368 159.899 133.096 164.153 132.687C174.365 131.707 175.944 126.039 173.552 123.648Z" fill="#0E6A41"/>
<path d="M138.851 147.564L149.361 132.152C149.361 132.152 146.056 126.068 143.975 124.239C140.138 129.52 136.519 135.959 134.018 145.561C136.038 147.107 138.851 147.564 138.851 147.564Z" fill="#0E6A41"/>
<path d="M207.845 234.135C202.6 238.155 194.868 239.827 192.02 240.301C190.945 240.48 189.924 239.77 189.719 238.7C189.436 237.222 189.125 235.384 188.994 234.25C188.968 234.026 188.95 233.83 188.94 233.67L193.873 231.181L194.072 231.08C194.811 231.767 195.639 232.091 196.506 232.205C196.779 232.242 197.056 232.258 197.336 232.257C197.704 232.256 198.076 232.228 198.448 232.183C198.723 232.151 198.999 232.108 199.273 232.062C202.162 231.57 207.042 230.302 207.845 234.135Z" fill="#181630"/>
<path d="M197.336 232.257L197.373 233.711C197.378 233.939 197.198 234.129 196.969 234.135C196.74 234.14 196.551 233.96 196.545 233.732L196.507 232.205C196.779 232.243 197.057 232.258 197.336 232.257Z" fill="#F8F9FC"/>
<path d="M199.274 232.062L199.302 233.162C199.307 233.39 199.126 233.58 198.898 233.586C198.669 233.592 198.48 233.412 198.474 233.183L198.448 232.183C198.724 232.151 198.999 232.108 199.274 232.062Z" fill="#F8F9FC"/>
<path d="M168.446 167.37L167.826 167.218C170.615 160.734 176.446 150.133 179.932 143.634C180.25 143.042 180.548 142.486 180.822 141.974C183.997 136.044 181.254 127.875 181.228 127.796L181.899 127.78C181.928 127.863 182.672 129.95 182.937 132.726C183.181 135.298 183.11 139.043 181.38 142.273C181.106 142.786 180.808 143.341 180.49 143.934C177.008 150.424 171.224 160.911 168.446 167.37Z" fill="#0E6A41"/>
<path d="M183.655 118.715C183.621 118.485 183.863 118.302 184.045 118.421C184.508 118.722 185.282 119.2 186.062 119.572C186.842 119.943 187.701 120.244 188.226 120.414C188.433 120.481 188.443 120.784 188.244 120.903C187.63 121.267 186.503 121.726 185.308 121.156C184.113 120.586 183.758 119.421 183.655 118.715Z" fill="#F8F9FC"/>
<path d="M271.686 121.844C264.072 126.28 271.88 146.164 279.815 152.405C279.815 152.405 289.436 150.827 287.374 146.85C281.51 135.541 277.648 118.37 271.686 121.844Z" fill="#4364CC"/>
<path d="M309.962 153.422L286.208 144.94C286.208 144.94 282.691 148.061 279.816 152.404C283.605 155.016 290.556 157.869 307.856 158.633C309.073 157.316 309.962 153.422 309.962 153.422Z" fill="#4364CC"/>
<path d="M265.3 110.208L265.304 110.209L269.195 110.874L268.872 120.76L263.596 121.866L259.146 118.682L261.469 109.583L265.3 110.208Z" fill="#F37A50"/>
<path d="M258.659 102.354C258.431 109.175 262.586 114.85 267.94 115.029C273.293 115.209 277.817 109.824 278.045 103.003C278.273 96.1817 274.118 90.5067 268.765 90.3276C263.412 90.1486 258.887 95.533 258.659 102.354Z" fill="#F37A50"/>
<path d="M271.415 104.635C272.169 106.052 273.128 107.783 273.128 107.783C273.128 107.783 272.532 109.181 270.643 109.07C271.465 108.795 272.292 108.312 272.041 107.223C271.789 106.134 271.415 104.635 271.415 104.635Z" fill="#DE623C"/>
<path d="M257.394 96.6286C257.887 90.1754 264.078 89.0638 264.078 89.0638C264.078 89.0638 262.846 88.3847 263.484 86.5156C264.313 87.2373 265.398 87.6889 266.494 87.7622C273.878 88.2561 278.251 90.2157 277.053 92.944C276.626 93.9147 281.251 95.2218 278.03 101.598C277.714 100.729 277.808 97.6798 276.505 96.7871C275.197 95.8912 275.65 98.3585 272.502 97.4606C269.326 96.5549 267.443 94.8584 264.871 95.7439C262.791 96.5884 259.141 103.936 259.161 104.483C259.116 103.228 257.178 99.4645 257.394 96.6286Z" fill="#201D40"/>
<path d="M277.488 106.654C277.488 106.654 276.264 110.178 275.311 111.014C275.4 109.424 271.814 109.835 270.305 109.717C267.573 109.503 265.239 106.655 263.741 110.043C260.279 109.669 260.291 101.905 260.291 101.905C256.922 109.102 259.78 115.24 267.965 117.396C273.359 118.817 277.56 112.328 277.488 106.654Z" fill="#201D40"/>
<path d="M267.596 103.591C267.08 103.54 266.703 103.08 266.754 102.564C266.805 102.048 267.265 101.67 267.781 101.721C268.296 101.772 268.673 102.232 268.622 102.748C268.571 103.264 268.112 103.642 267.596 103.591Z" fill="black"/>
<path d="M275.288 104.587C274.773 104.536 274.396 104.076 274.447 103.559C274.498 103.043 274.957 102.666 275.473 102.717C275.989 102.768 276.366 103.228 276.315 103.744C276.264 104.26 275.804 104.638 275.288 104.587Z" fill="black"/>
<path d="M277.148 102.91C276.99 102.895 276.843 102.798 276.771 102.644C276.573 102.218 276.308 101.948 275.984 101.843C275.425 101.659 274.82 101.985 274.814 101.989C274.59 102.112 274.307 102.031 274.182 101.807C274.058 101.583 274.136 101.301 274.36 101.175C274.398 101.154 275.313 100.648 276.263 100.953C276.846 101.141 277.301 101.577 277.615 102.249C277.724 102.483 277.623 102.76 277.39 102.869C277.312 102.905 277.228 102.918 277.148 102.91Z" fill="#201D40"/>
<path d="M265.757 101.766C265.655 101.756 265.556 101.713 265.477 101.636C265.293 101.456 265.29 101.161 265.47 100.977C266.154 100.276 266.869 99.9287 267.595 99.9441C268.531 99.9636 269.113 100.601 269.138 100.628C269.31 100.819 269.294 101.114 269.102 101.286C268.912 101.457 268.62 101.442 268.448 101.253C268.435 101.24 268.087 100.881 267.563 100.876C267.108 100.87 266.628 101.124 266.136 101.628C266.033 101.733 265.893 101.779 265.757 101.766Z" fill="#201D40"/>
<path d="M260.2 101.922C261.165 103.204 261.096 104.884 260.047 105.673C258.998 106.463 257.367 106.063 256.403 104.781C255.438 103.498 255.507 101.819 256.556 101.029C257.605 100.239 259.236 100.639 260.2 101.922Z" fill="#F37A50"/>
<path d="M258.625 104.975C258.677 104.965 258.727 104.943 258.772 104.908C259.41 104.411 259.644 103.721 259.398 103.063C259.146 102.389 258.464 101.927 257.777 101.965C257.584 101.975 257.436 102.141 257.446 102.334C257.457 102.528 257.622 102.676 257.816 102.665C258.192 102.645 258.599 102.927 258.741 103.309C258.878 103.675 258.736 104.046 258.341 104.354C258.188 104.473 258.16 104.694 258.28 104.847C258.364 104.955 258.499 105.001 258.625 104.975Z" fill="#DE623C"/>
<path d="M270.363 112.718C267.986 112.718 266.461 110.705 266.442 110.679C266.315 110.508 266.351 110.267 266.522 110.14C266.693 110.014 266.933 110.049 267.06 110.22C267.149 110.34 269.281 113.129 272.393 111.365C272.578 111.26 272.813 111.325 272.917 111.511C273.022 111.696 272.957 111.931 272.772 112.035C271.902 112.529 271.092 112.718 270.363 112.718Z" fill="#DE623C"/>
<path d="M271.669 229.926L272.758 234.123L278.882 232.089L278.753 229.045L271.669 229.926Z" fill="#F37A50"/>
<path d="M230.025 232.367L230.906 228.441L237.73 228.877L236.198 232.037L230.025 232.367Z" fill="#F37A50"/>
<path d="M278.876 231.93C282.197 237.006 290.928 233.563 290.324 240.186C277.057 239.471 271.537 239.294 271.537 239.294C271.627 237.771 272.061 234.165 272.434 232.763L278.876 231.93Z" fill="#181630"/>
<path d="M236.169 231.727C239.224 236.967 248.447 234.12 247.503 240.704L228.788 239.433C228.788 237.002 229.575 233.748 230.019 232.368L236.169 231.727Z" fill="#181630"/>
<path d="M265.22 155.943L247.921 165.675C247.921 165.675 263.012 192.314 271.482 200.454C272.956 201.872 281.103 199.371 281.645 197.608C283.618 191.182 265.22 155.943 265.22 155.943Z" fill="#181630"/>
<path d="M270.073 197.044C267.113 209.249 270.703 230.825 270.703 230.825C270.703 230.825 276.164 231.017 280.309 229.357C279.857 208.554 282.578 201.58 281.547 194.007C278.979 189.435 272.346 190.266 270.073 197.044Z" fill="#181630"/>
<path d="M261.464 160.227L241.639 159.337C241.639 159.337 240.38 189.934 243.27 201.325C243.774 203.307 250.149 205.845 251.539 204.635C256.608 200.224 261.464 160.227 261.464 160.227Z" fill="#201D40"/>
<path d="M243.194 196.351C235.161 206 229.877 228.02 229.877 228.02C229.877 228.02 233.831 231.02 238.283 231.358C248.677 213.235 250.155 207.682 253.286 201.452C255.33 195.448 248.22 191.271 243.194 196.351Z" fill="#201D40"/>
<path d="M246.729 118.746C246.729 118.746 252.679 115.712 259.503 117.742C266.221 123.274 268.882 120.391 268.882 120.391C271.698 120.452 274.736 121.864 274.736 121.864C275.448 136.002 272.023 165.31 272.023 165.31C272.023 165.31 261.701 167.13 254.023 165.31C246.371 163.384 239.654 160.163 239.654 160.163C239.654 160.163 244.728 126.932 246.729 118.746Z" fill="#768FDB"/>
<path d="M256.055 120.125C249.348 110.87 235.602 126.927 228.624 134.373C228.624 134.373 229.24 143.75 236.077 143.431C241.443 141.577 260.107 125.717 256.055 120.125Z" fill="#4364CC"/>
<path d="M212.938 171.867C213.115 169.024 216.492 167.375 216.647 168.405C216.829 169.61 216.349 171.41 216.349 171.41C217.136 171.8 220.755 170.431 219.146 165.844L221.322 163.767L217.072 160.11L215.944 162.785C210.384 164.172 209.157 166.087 208.957 170.496C208.76 174.833 212.772 174.539 212.938 171.867Z" fill="#DE623C"/>
<path d="M221.796 166.412L237.136 142.596C237.136 142.596 231.776 138.517 228.623 134.372C225.085 138.319 222.232 144.929 215.823 161.028C216.667 162.611 221.796 166.412 221.796 166.412Z" fill="#4364CC"/>
<path d="M212.187 170.9C212.275 170.903 212.357 170.925 212.437 170.954C212.437 170.94 212.437 170.925 212.437 170.91C212.473 170.029 213.014 169.336 213.646 169.362C213.749 169.366 213.848 169.391 213.942 169.431C214.15 168.91 214.554 168.561 215.005 168.579C215.183 168.587 215.35 168.653 215.497 168.761C215.67 168.227 216.11 167.852 216.614 167.873C217.246 167.899 217.733 168.53 217.702 169.282C217.672 170.034 217.135 170.623 216.504 170.597C216.344 170.59 216.193 170.544 216.058 170.468C215.941 171.228 215.446 171.793 214.875 171.77C214.771 171.766 214.672 171.74 214.578 171.7C214.37 172.222 213.967 172.571 213.516 172.552C213.35 172.546 213.194 172.488 213.055 172.394C212.922 172.875 212.538 173.218 212.094 173.2C211.56 173.178 211.149 172.645 211.175 172.01C211.201 171.375 211.654 170.878 212.187 170.9Z" fill="#F37A50"/>
<path d="M97.4284 216.315L97.9967 219.862L103.939 218.313L103.885 215.316L97.4284 216.315Z" fill="#F37A50"/>
<path d="M103.961 217.928C107.149 222.799 115.557 219.202 114.978 225.559L96.8412 225.551C96.9272 224.089 97.42 220.073 97.7781 218.727L103.961 217.928Z" fill="#181630"/>
<path d="M92.3229 147.661L77.7011 155.887C77.7011 155.887 90.4565 178.403 97.6154 185.283C98.8615 186.481 105.748 184.368 106.205 182.878C107.873 177.446 92.3229 147.661 92.3229 147.661Z" fill="#181630"/>
<path d="M96.4251 182.401C92.9411 193.858 96.6129 217.074 96.6129 217.074C96.6129 217.074 101.229 217.236 104.732 215.832C104.35 198.25 106.994 186.235 106.123 179.834C103.953 175.97 98.3458 176.672 96.4251 182.401Z" fill="#181630"/>
<path d="M89.1482 151.283L72.3915 150.531C72.3915 150.531 71.3273 176.391 73.7705 186.019C74.1958 187.695 79.5842 189.84 80.7594 188.817C85.0438 185.089 89.1482 151.283 89.1482 151.283Z" fill="#201D40"/>
<path d="M79.9161 189.776C77.925 190.916 75.4094 192.76 72.1463 195.055L70.5726 182.29C72.1359 181.784 73.6826 181.488 75.1849 181.466C81.0974 180.235 84.1567 186.501 79.9161 189.776Z" fill="#201D40"/>
<path d="M122.142 115.521C121.386 116.404 120.05 118.461 119.143 119.443L116.31 117.984C115.413 114.377 117.051 110.613 117.192 110.157C117.56 108.975 117.66 108.396 117.848 108.37C118.037 108.343 119.168 108.481 118.688 110.219C118.085 112.4 120.485 112.529 122.425 108.065C122.911 106.947 124.413 106.962 124.472 108.1C124.538 109.354 125.579 111.503 122.142 115.521Z" fill="#F37A50"/>
<path d="M102.194 128.929C101.529 130.696 103.835 138.007 104.485 137.896C111.698 133.94 119.538 119.328 119.538 119.328L115.594 116.864C115.594 116.864 110.765 122.971 102.194 128.929Z" fill="#C4204A"/>
<path d="M87.1898 119.498C89.9207 124.282 102.51 137.637 104.484 137.895L105.173 128.496C105.173 128.496 95.7141 113.918 93.7875 111.517C90.4609 107.351 82.7163 111.697 87.1898 119.498Z" fill="#C4204A"/>
<path d="M124.834 107.753L118.924 116.94C118.687 117.309 118.197 117.415 117.829 117.178L116.588 116.378C116.22 116.141 116.114 115.651 116.351 115.283L122.261 106.095C122.498 105.727 122.988 105.621 123.355 105.857L124.597 106.657C124.964 106.894 125.071 107.385 124.834 107.753Z" fill="#201D40"/>
<path d="M124.286 107.393L118.376 116.581C118.139 116.949 117.649 117.055 117.281 116.818L116.04 116.019C115.672 115.782 115.566 115.291 115.803 114.923L121.713 105.735C121.95 105.367 122.44 105.261 122.808 105.498L124.049 106.297C124.417 106.534 124.523 107.025 124.286 107.393Z" fill="#F8F9FC"/>
<path d="M121.869 112.469C122.011 111.794 121.807 108.985 122.66 108.994C122.868 109.068 122.946 109.48 122.946 109.48C123.068 109.064 123.314 107.234 123.992 107.557C124.571 108.063 124.48 108.461 124.48 108.461L121.869 112.469Z" fill="#F37A50"/>
<path d="M91.7287 111.806C92.5674 113.259 84.4231 113.623 83.724 110.743C83.025 107.864 85.7403 100.274 85.7403 100.274L92.909 103.096C92.909 103.096 90.6373 109.915 91.7287 111.806Z" fill="#DE623C"/>
<path d="M83.4717 94.0812C83.3771 100.723 87.5262 106.168 92.739 106.242C97.9517 106.317 102.254 100.993 102.349 94.3504C102.443 87.7082 98.2942 82.2634 93.0815 82.189C87.8687 82.1149 83.5662 87.4392 83.4717 94.0812Z" fill="#F37A50"/>
<path d="M99.4737 96.5657C99.7024 97.0582 100.287 97.2721 100.779 97.0432C101.271 96.8143 101.485 96.2295 101.256 95.737C101.027 95.2444 100.443 95.0307 99.9509 95.2596C99.4586 95.4883 99.245 96.073 99.4737 96.5657Z" fill="black"/>
<path d="M92.9292 95.7438C93.1767 96.2769 93.8092 96.5084 94.342 96.2605C94.8749 96.0127 95.1061 95.3798 94.8585 94.8464C94.611 94.3132 93.9784 94.0818 93.4455 94.3297C92.913 94.5774 92.6815 95.2105 92.9292 95.7438Z" fill="black"/>
<path d="M97.5866 96.5305C97.9335 98.0535 98.3937 99.9248 98.3937 99.9248C98.3937 99.9248 97.4778 101.085 95.7318 100.499C96.574 100.45 97.4743 100.208 97.5153 99.1209C97.5565 98.0343 97.5866 96.5305 97.5866 96.5305Z" fill="#DE623C"/>
<path d="M99.5572 94.3022C99.673 94.3581 99.8144 94.3532 99.9293 94.2773C99.9408 94.2698 100.33 94.0247 100.725 94.136C101.003 94.2143 101.243 94.4596 101.437 94.8646C101.527 95.0526 101.752 95.1321 101.939 95.0421C102.127 94.9523 102.207 94.727 102.117 94.5391C101.823 93.925 101.42 93.544 100.918 93.4066C100.184 93.2057 99.5386 93.6308 99.5115 93.6491C99.3385 93.7651 99.2923 93.9994 99.4083 94.1726C99.4469 94.2302 99.4988 94.2738 99.5572 94.3022Z" fill="#201D40"/>
<path d="M94.5788 93.6737C94.4557 93.711 94.3166 93.6846 94.2149 93.5916C94.2047 93.5827 93.8582 93.2805 93.4507 93.3295C93.1633 93.364 92.8889 93.5693 92.6352 93.9396C92.5175 94.1115 92.2829 94.1553 92.1111 94.0375C91.9393 93.9198 91.8956 93.6849 92.0133 93.5131C92.3978 92.9515 92.8548 92.6374 93.3717 92.579C94.1283 92.4938 94.7006 93.0134 94.7245 93.0355C94.8776 93.1769 94.8871 93.4156 94.7458 93.5688C94.6988 93.6198 94.6408 93.655 94.5788 93.6737Z" fill="#201D40"/>
<path d="M97.7386 102.853C97.9391 102.696 97.8568 102.376 97.605 102.338C96.9646 102.242 95.9119 102.061 94.9335 101.792C93.955 101.522 92.9578 101.139 92.3581 100.895C92.1223 100.798 91.8885 101.031 91.9805 101.268C92.2634 101.999 92.9398 103.177 94.4395 103.589C95.9389 104.002 97.1219 103.336 97.7386 102.853Z" fill="#F8F9FC"/>
<path d="M85.1751 97.1351C85.7121 94.7639 86.7419 94.813 88.5036 92.5698C89.4319 89.4923 91.1821 87.6364 93.6506 89.4893C96.1846 91.3914 98.3975 91.542 99.6611 90.8873C102.597 89.3662 102.35 94.1038 102.35 94.1038C102.35 94.1038 105.32 89.1347 103.611 86.4101C101.173 82.5234 99.8121 84.4547 97.0715 81.7773C94.3306 79.0998 89.4518 79.3815 88.0811 81.1158C86.6361 82.9442 86.7293 83.7053 83.6291 84.5138C80.5289 85.3221 78.214 88.52 80.1296 92.0756C82.0453 95.6313 77.0806 96.3663 80.8053 100.09C82.25 101.534 84.7685 102.022 85.3699 101.52C84.7384 100.275 84.8289 98.6638 85.1751 97.1351Z" fill="#2C2858"/>
<path d="M87.1313 94.2597C87.829 95.657 87.4682 97.253 86.3255 97.8244C85.1829 98.3957 83.691 97.7262 82.9934 96.3287C82.2957 94.9313 82.6565 93.3354 83.7992 92.7642C84.9418 92.1927 86.4337 92.8624 87.1313 94.2597Z" fill="#F37A50"/>
<path d="M85.2799 96.7566C85.2505 96.7435 85.2229 96.725 85.1985 96.7009C85.0904 96.594 85.0893 96.4197 85.1961 96.3115C85.5887 95.9136 85.7498 95.5545 85.6746 95.2439C85.5496 94.7269 84.7956 94.3756 84.5158 94.284C84.3715 94.2364 84.2926 94.0811 84.3398 93.9365C84.3871 93.7921 84.5426 93.7132 84.6869 93.7606C84.7398 93.778 85.9873 94.1964 86.2094 95.1143C86.3326 95.6228 86.1232 96.1558 85.5876 96.6985C85.5049 96.7824 85.3816 96.8018 85.2799 96.7566Z" fill="#DE623C"/>
<path d="M96.9187 153.858C91.0916 154.255 74.2468 156.47 69.1358 153.641C67.4882 150.434 70.6547 135.568 71.5283 129.588C74.0194 112.538 75.5088 107.766 83.6124 107.125C85.4285 108.275 89.8393 109.684 91.967 109.987C91.967 109.987 95.8941 117.341 96.1827 122.337C96.4755 127.402 95.4065 136.196 94.8209 141.236C94.1706 146.834 96.668 150.244 96.9187 153.858Z" fill="#E62552"/>
<path d="M63.3778 123.899C63.3778 123.899 76.4995 104.987 81.9813 108.114C86.1648 111.516 76.3968 124.702 64.5772 133.633L63.3778 123.899Z" fill="#C4204A"/>
<path d="M374.816 74.5647H411.791C414.708 74.5647 417.072 72.1984 417.072 69.2795V53.4892C417.072 50.5703 414.708 48.2041 411.791 48.2041H374.816C371.9 48.2041 369.535 50.5703 369.535 53.4892V69.2795C369.535 72.1984 371.9 74.5647 374.816 74.5647Z" fill="#F8F9FC"/>
<path d="M376.267 73.384V83.1973C376.267 83.9852 377.327 84.2389 377.683 83.5368L382.837 73.384H376.267Z" fill="#F8F9FC"/>
<path d="M375.734 56.442H410.428C411.763 56.442 412.844 55.3594 412.844 54.0242C412.844 52.6889 411.763 51.6065 410.428 51.6065H375.734C374.399 51.6065 373.318 52.6889 373.318 54.0242C373.318 55.3594 374.399 56.442 375.734 56.442Z" fill="#E3EAFF"/>
<path d="M375.734 64.1115H410.428C411.763 64.1115 412.844 63.0289 412.844 61.6936C412.844 60.3583 411.763 59.2759 410.428 59.2759H375.734C374.399 59.2759 373.318 60.3583 373.318 61.6936C373.318 63.0289 374.399 64.1115 375.734 64.1115Z" fill="#E3EAFF"/>
<path d="M375.379 71.781H397.644C398.782 71.781 399.705 70.8576 399.705 69.7182V69.0082C399.705 67.8688 398.782 66.9453 397.644 66.9453H375.379C374.241 66.9453 373.318 67.8688 373.318 69.0082V69.7182C373.318 70.8574 374.241 71.781 375.379 71.781Z" fill="#E3EAFF"/>
<path d="M291.083 50.9884C292.799 56.1213 290.032 61.6744 284.904 63.3919C279.775 65.1091 274.226 62.3404 272.51 57.2076C270.794 52.0748 273.56 46.5216 278.689 44.8042C283.818 43.0869 289.367 45.8556 291.083 50.9884Z" fill="#7F99EB"/>
<path d="M276.754 52.5374C277.618 52.2483 278.552 52.7144 278.841 53.5784C279.13 54.4425 278.664 55.3774 277.801 55.6663C276.937 55.9554 276.003 55.4893 275.714 54.6253C275.425 53.7612 275.891 52.8263 276.754 52.5374Z" fill="#F8F9FC"/>
<path d="M284.712 49.8741C285.575 49.5848 286.509 50.0511 286.798 50.9151C287.087 51.7791 286.621 52.7139 285.758 53.003C284.895 53.2922 283.961 52.826 283.672 51.962C283.383 51.0981 283.848 50.1632 284.712 49.8741Z" fill="#F8F9FC"/>
<path d="M278.638 57.8864C278.555 57.9142 278.475 57.9535 278.4 58.0045C278.066 58.2327 277.984 58.6068 278.216 58.8404C279.358 59.9923 281.429 60.3293 283.371 59.6794C285.256 59.0482 286.664 57.6296 286.957 56.0652C287.018 55.7388 286.743 55.4781 286.342 55.4832C285.94 55.488 285.566 55.7568 285.504 56.0832C285.3 57.1717 284.321 58.1586 283.009 58.5979C281.659 59.05 280.217 58.8156 279.423 58.0143C279.243 57.8329 278.927 57.79 278.638 57.8864Z" fill="#F8F9FC"/>
<path d="M419.281 141.255C417.426 146.34 411.804 148.956 406.723 147.1C401.643 145.243 399.028 139.617 400.883 134.533C402.738 129.448 408.36 126.832 413.441 128.688C418.521 130.544 421.136 136.171 419.281 141.255Z" fill="#7F99EB"/>
<path d="M407.116 133.529C407.972 133.842 408.412 134.789 408.099 135.645C407.787 136.501 406.841 136.941 405.986 136.628C405.13 136.316 404.69 135.369 405.003 134.513C405.315 133.657 406.261 133.217 407.116 133.529Z" fill="#F8F9FC"/>
<path d="M414.997 136.408C415.852 136.721 416.293 137.668 415.98 138.524C415.668 139.38 414.722 139.82 413.866 139.508C413.011 139.195 412.571 138.248 412.883 137.392C413.196 136.536 414.142 136.096 414.997 136.408Z" fill="#F8F9FC"/>
<path d="M405.256 138.885C405.174 138.855 405.087 138.835 404.997 138.829C404.594 138.799 404.296 139.041 404.332 139.368C404.508 140.981 405.918 142.536 407.841 143.239C409.708 143.921 411.692 143.69 412.896 142.65C413.147 142.433 413.094 142.057 412.777 141.811C412.461 141.564 412 141.541 411.749 141.758C410.911 142.481 409.531 142.642 408.231 142.168C406.894 141.679 405.913 140.596 405.79 139.474C405.763 139.221 405.542 138.99 405.256 138.885Z" fill="#F8F9FC"/>
<path d="M322.862 77.504C320.664 82.2524 315.035 84.3183 310.291 82.1184C305.546 79.9186 303.481 74.2858 305.68 69.5374C307.878 64.789 313.506 62.723 318.251 64.9229C322.996 67.1228 325.06 72.7556 322.862 77.504Z" fill="#F8F9FC"/>
<path d="M311.766 69.075C312.565 69.4452 312.912 70.3935 312.542 71.1929C312.172 71.992 311.225 72.3397 310.426 71.9694C309.627 71.599 309.28 70.6509 309.65 69.8515C310.02 69.0524 310.967 68.7046 311.766 69.075Z" fill="#CDD8FA"/>
<path d="M319.127 72.4882C319.925 72.8586 320.273 73.8067 319.903 74.606C319.533 75.4052 318.585 75.7531 317.787 75.3828C316.988 75.0126 316.64 74.0643 317.01 73.2651C317.381 72.4657 318.328 72.118 319.127 72.4882Z" fill="#CDD8FA"/>
<path d="M309.539 74.0851C309.462 74.0496 309.379 74.0236 309.293 74.0099C308.907 73.9489 308.601 74.1572 308.609 74.475C308.648 76.0436 309.881 77.6567 311.676 78.4895C313.42 79.298 315.351 79.2359 316.595 78.3313C316.855 78.1426 316.834 77.7763 316.548 77.5132C316.263 77.25 315.821 77.1901 315.562 77.3788C314.696 78.0084 313.353 78.0516 312.14 77.4889C310.89 76.9097 310.033 75.7872 310.005 74.6962C309.999 74.4492 309.805 74.2088 309.539 74.0851Z" fill="#CDD8FA"/>
<path d="M38.2538 135.395C40.148 139.696 38.1999 144.719 33.9025 146.614C29.6051 148.51 24.5858 146.56 22.6916 142.26C20.7973 137.959 22.7455 132.936 27.0429 131.04C31.3404 129.145 36.3597 131.094 38.2538 135.395Z" fill="#F8F9FC"/>
<path d="M25.991 137.881C26.7143 137.562 27.5593 137.89 27.8781 138.614C28.197 139.338 27.869 140.184 27.1456 140.503C26.4222 140.822 25.5773 140.494 25.2584 139.77C24.9397 139.046 25.2676 138.2 25.991 137.881Z" fill="#CDD8FA"/>
<path d="M32.6578 134.939C33.3812 134.62 34.2261 134.948 34.5449 135.673C34.8638 136.396 34.5359 137.242 33.8124 137.561C33.0889 137.88 32.2441 137.552 31.9252 136.828C31.6065 136.104 31.9344 135.259 32.6578 134.939Z" fill="#CDD8FA"/>
<path d="M28.0453 142.355C27.9757 142.386 27.9091 142.426 27.8487 142.476C27.5788 142.7 27.5374 143.03 27.7562 143.214C28.8361 144.118 30.6541 144.244 32.2806 143.526C33.8601 142.829 34.9639 141.49 35.0927 140.114C35.1196 139.827 34.8604 139.624 34.5139 139.66C34.1673 139.696 33.8648 139.959 33.8379 140.246C33.7484 141.203 32.9803 142.135 31.8813 142.62C30.7498 143.119 29.4848 143.032 28.7337 142.403C28.5638 142.26 28.2869 142.248 28.0453 142.355Z" fill="#CDD8FA"/>
<path d="M503.047 200.91L506.963 213.375C507.112 213.85 506.849 214.355 506.375 214.504L484.728 221.315C484.254 221.464 483.75 221.201 483.6 220.726L479.684 208.261C479.535 207.786 479.798 207.28 480.272 207.131L501.919 200.32C502.393 200.171 502.898 200.435 503.047 200.91Z" fill="#CDD8FA"/>
<path d="M503.047 200.91L503.264 201.599L495.628 211.792C494.896 212.81 493.587 213.234 492.397 212.839L479.808 208.655L479.684 208.261C479.535 207.787 479.799 207.281 480.273 207.132L501.918 200.321C502.393 200.172 502.898 200.436 503.047 200.91Z" fill="#F8F9FC"/>
<path d="M357.997 26.8799L352.908 40.0307C352.714 40.5321 352.152 40.7805 351.652 40.5867L328.814 31.7362C328.314 31.5424 328.066 30.9799 328.26 30.4785L333.348 17.3276C333.542 16.8264 334.104 16.5778 334.604 16.7717L357.443 25.6222C357.943 25.8161 358.191 26.3786 357.997 26.8799Z" fill="#CDD8FA"/>
<path d="M357.997 26.8803L357.716 27.6074L344.416 31.0542C343.113 31.4191 341.724 30.8945 340.987 29.7589L333.188 17.7433L333.348 17.3281C333.542 16.8272 334.105 16.5785 334.605 16.7724L357.442 25.6223C357.942 25.8163 358.191 26.3797 357.997 26.8803Z" fill="#F8F9FC"/>
<path d="M207.548 108.034C207.495 107.725 207.519 107.422 207.598 107.138C207.968 104.337 211.873 103.864 217.358 102.786C218.275 102.606 217.562 101.613 216.83 99.291C216.354 97.7807 216.946 95.2334 218.629 94.9437C221.403 94.4659 219.109 97.1056 222.489 102.074C224.295 104.729 226.947 102.611 227.444 105.505L228.577 112.091C228.771 113.217 228.846 114.319 227.287 114.771C225.775 115.209 226.31 116.244 224.087 116.627L212.959 118.544C211.825 118.739 210.745 117.978 210.551 116.849C210.47 116.381 210.562 115.926 210.768 115.535C210.079 115.292 209.533 114.704 209.401 113.936C209.321 113.469 209.411 113.015 209.617 112.624C208.926 112.383 208.379 111.794 208.247 111.025C208.151 110.466 208.291 109.921 208.593 109.488C208.061 109.192 207.659 108.677 207.548 108.034Z" fill="#F8F9FC"/>
<path d="M215.262 108.814L209.956 109.728C209.235 109.852 208.491 109.585 208.016 109.029C207.82 108.8 207.848 108.456 208.079 108.26C208.309 108.064 208.654 108.092 208.851 108.321C209.076 108.585 209.429 108.712 209.772 108.653L215.205 107.717C215.744 107.624 216.106 107.113 216.014 106.576C215.922 106.04 215.409 105.679 214.871 105.772L211.24 106.397C210.942 106.448 210.659 106.249 210.608 105.952C210.557 105.656 210.757 105.373 211.055 105.322L214.686 104.696C215.82 104.501 216.9 105.261 217.094 106.39C217.202 107.02 217.005 107.628 216.62 108.081C217.063 108.388 217.388 108.863 217.486 109.434C217.595 110.065 217.396 110.675 217.008 111.129C217.448 111.435 217.77 111.909 217.868 112.478C217.987 113.166 217.746 113.833 217.286 114.295C217.671 114.601 217.955 115.037 218.044 115.558C218.239 116.688 217.475 117.765 216.341 117.96L212.959 118.543C212.237 118.667 211.494 118.4 211.018 117.845C210.822 117.616 210.85 117.271 211.08 117.075C211.31 116.881 211.656 116.906 211.851 117.135C212.078 117.399 212.432 117.527 212.774 117.468L216.156 116.885C216.694 116.792 217.057 116.281 216.965 115.744C216.873 115.208 216.36 114.847 215.822 114.94L211.809 115.631C211.088 115.755 210.343 115.487 209.869 114.932C209.672 114.702 209.7 114.358 209.93 114.163C210.162 113.964 210.507 113.994 210.702 114.223C210.931 114.491 211.277 114.615 211.624 114.556L215.98 113.805C216.519 113.713 216.881 113.2 216.789 112.664C216.697 112.128 216.184 111.767 215.646 111.859L210.656 112.719C209.934 112.843 209.19 112.576 208.715 112.02C208.519 111.792 208.547 111.447 208.776 111.251C209.008 111.056 209.353 111.083 209.548 111.311C209.778 111.579 210.123 111.703 210.471 111.643L215.597 110.761C216.135 110.668 216.498 110.156 216.406 109.62C216.314 109.083 215.801 108.721 215.262 108.814Z" fill="#BDCDFF"/>
<path d="M228.907 115.005L232.372 114.408C232.852 114.326 233.174 113.87 233.091 113.389L231.319 103.085C231.237 102.605 230.781 102.282 230.301 102.365L226.836 102.962C226.356 103.044 226.034 103.501 226.116 103.981L227.888 114.285C227.971 114.765 228.427 115.088 228.907 115.005Z" fill="#BDCDFF"/>
<path d="M450.583 27.5024C450.658 27.1979 450.655 26.8941 450.596 26.6044C450.421 23.7849 446.559 23.0418 441.162 21.5846C440.259 21.3412 441.039 20.4007 441.931 18.1348C442.511 16.6613 442.097 14.0789 440.439 13.6728C437.704 13.0032 439.809 15.7961 436.093 20.518C434.107 23.0409 431.608 20.7436 430.911 23.5954L429.324 30.0871C429.052 31.1972 428.901 32.2912 430.425 32.8505C431.902 33.3925 431.297 34.3877 433.488 34.9242L444.457 37.61C445.574 37.8836 446.704 37.2001 446.976 36.0869C447.089 35.6254 447.03 35.1653 446.851 34.7608C447.555 34.5667 448.141 34.0181 448.325 33.2612C448.438 32.801 448.379 32.341 448.201 31.9372C448.907 31.7444 449.494 31.1953 449.679 30.4372C449.814 29.8866 449.712 29.3328 449.441 28.8793C449.991 28.622 450.428 28.1358 450.583 27.5024Z" fill="#E3EAFF"/>
<path d="M442.834 27.7448L448.064 29.0255C448.775 29.1996 449.535 28.9839 450.048 28.463C450.259 28.2483 450.255 27.9027 450.039 27.6913C449.823 27.4799 449.476 27.4841 449.265 27.6989C449.022 27.9467 448.66 28.0482 448.323 27.9655L442.967 26.6542C442.437 26.5242 442.11 25.9886 442.239 25.4597C442.369 24.9311 442.905 24.6068 443.436 24.7367L447.015 25.6132C447.308 25.685 447.604 25.5059 447.676 25.2133C447.747 24.9209 447.567 24.6252 447.274 24.5534L443.695 23.6768C442.577 23.4031 441.447 24.0862 441.175 25.1992C441.023 25.82 441.178 26.4399 441.531 26.9193C441.067 27.1942 440.71 27.6458 440.573 28.2078C440.421 28.8304 440.576 29.4527 440.932 29.932C440.471 30.2069 440.117 30.6574 439.98 31.2183C439.814 31.8965 440.007 32.5782 440.435 33.071C440.029 33.3497 439.716 33.7655 439.59 34.279C439.318 35.3922 440.005 36.52 441.123 36.7936L444.456 37.6099C445.167 37.7842 445.928 37.5692 446.44 37.0483C446.652 36.8338 446.648 36.4881 446.433 36.2767C446.216 36.0664 445.869 36.0683 445.659 36.2829C445.414 36.5306 445.053 36.6325 444.715 36.55L441.382 35.7337C440.851 35.6037 440.525 35.0681 440.654 34.5394C440.783 34.0107 441.32 33.6864 441.85 33.8163L445.805 34.7846C446.516 34.9589 447.278 34.7435 447.79 34.2224C448.001 34.0073 447.998 33.6617 447.782 33.451C447.564 33.2366 447.218 33.2424 447.008 33.4572C446.76 33.7092 446.407 33.8089 446.064 33.7249L441.771 32.6736C441.24 32.5437 440.914 32.0074 441.043 31.4787C441.172 30.9498 441.709 30.6256 442.24 30.7555L447.158 31.9599C447.869 32.1341 448.63 31.9191 449.142 31.3983C449.354 31.1838 449.35 30.838 449.134 30.6267C448.917 30.4157 448.571 30.4183 448.361 30.6329C448.113 30.8842 447.76 30.9841 447.417 30.9L442.365 29.6628C441.834 29.5328 441.508 28.9973 441.637 28.4685C441.766 27.9398 442.303 27.6147 442.834 27.7448Z" fill="#BDCDFF"/>
<path d="M428.792 32.9702L425.377 32.1339C424.904 32.018 424.614 31.5406 424.73 31.067L427.213 20.9108C427.329 20.4376 427.806 20.1476 428.279 20.2636L431.694 21.1C432.167 21.2156 432.457 21.6933 432.341 22.1666L429.858 32.3228C429.742 32.7962 429.265 33.086 428.792 32.9702Z" fill="#BDCDFF"/>
<path d="M317.922 178.442C318.692 175.181 316.674 171.913 313.415 171.143C310.157 170.373 306.892 172.392 306.123 175.653C305.353 178.914 307.371 182.182 310.629 182.952C313.888 183.722 317.153 181.703 317.922 178.442Z" fill="#F8F9FC"/>
<path d="M171.113 25.8153C169.434 27.4953 166.712 27.4953 165.033 25.8153C163.355 24.1352 163.355 21.4115 165.033 19.7314C166.712 18.0515 169.434 18.0515 171.113 19.7314C172.791 21.4115 172.791 24.1352 171.113 25.8153Z" fill="#F8F9FC"/>
<path d="M518.509 131.323C516.83 133.003 514.108 133.003 512.429 131.323C510.751 129.643 510.751 126.919 512.429 125.239C514.108 123.559 516.83 123.559 518.509 125.239C520.187 126.919 520.187 129.643 518.509 131.323Z" fill="#E3EAFF"/>
<path d="M321.497 19.7494C319.819 21.4294 317.097 21.4294 315.418 19.7494C313.739 18.0695 313.739 15.3454 315.418 13.6655C317.097 11.9855 319.819 11.9855 321.497 13.6655C323.176 15.3456 323.176 18.0695 321.497 19.7494Z" fill="#E3EAFF"/>
<path d="M324.877 171.842C322.412 171.842 320.408 169.836 320.408 167.37C320.408 164.903 322.412 162.897 324.877 162.897C327.341 162.897 329.346 164.903 329.346 167.37C329.346 169.836 327.341 171.842 324.877 171.842ZM324.877 164.61C323.356 164.61 322.119 165.848 322.119 167.37C322.119 168.891 323.356 170.13 324.877 170.13C326.397 170.13 327.635 168.891 327.635 167.37C327.635 165.848 326.397 164.61 324.877 164.61Z" fill="#F8F9FC"/>
<path d="M509.823 149.091C506.709 149.091 504.176 146.556 504.176 143.44C504.176 140.324 506.709 137.789 509.823 137.789C512.936 137.789 515.469 140.324 515.469 143.44C515.469 146.556 512.936 149.091 509.823 149.091ZM509.823 139.953C507.901 139.953 506.338 141.517 506.338 143.44C506.338 145.363 507.901 146.927 509.823 146.927C511.744 146.927 513.307 145.363 513.307 143.44C513.307 141.517 511.744 139.953 509.823 139.953Z" fill="#E3EAFF"/>
</svg>
