<svg width="30" height="30" viewBox="0 0 30 30" fill="none" xmlns="http://www.w3.org/2000/svg">
<path d="M6.25501 7.49875H26.255V9.99875H6.25501V7.49875ZM8.75501 2.5H23.755V5H8.75501V2.5ZM26.2463 12.4888H6.25376C5.92414 12.4896 5.59791 12.5553 5.2937 12.6822C4.98948 12.8091 4.71324 12.9947 4.48075 13.2283C4.24825 13.462 4.06406 13.7391 3.93868 14.044C3.8133 14.3488 3.74919 14.6754 3.75001 15.005V24.9725C3.74919 25.3021 3.8133 25.6287 3.93868 25.9335C4.06406 26.2384 4.24825 26.5155 4.48075 26.7492C4.71324 26.9828 4.98948 27.1684 5.2937 27.2953C5.59791 27.4222 5.92414 27.4879 6.25376 27.4888H26.2463C26.5759 27.4879 26.9021 27.4222 27.2063 27.2953C27.5105 27.1684 27.7868 26.9828 28.0193 26.7492C28.2518 26.5155 28.436 26.2384 28.5613 25.9335C28.6867 25.6287 28.7508 25.3021 28.75 24.9725V15.005C28.7508 14.6754 28.6867 14.3488 28.5613 14.044C28.436 13.7391 28.2518 13.462 28.0193 13.2283C27.7868 12.9947 27.5105 12.8091 27.2063 12.6822C26.9021 12.5553 26.5759 12.4896 26.2463 12.4888ZM26.25 25H6.25001V15H26.25V25Z" fill="white"/>
<path d="M15.005 23.7388H17.505V21.2525H20.005V18.7475H17.505V16.2388H15.005V18.7513H12.505V21.2525H15.005V23.7388Z" fill="white"/>
</svg>
