<svg width="30" height="30" viewBox="0 0 30 30" fill="none" xmlns="http://www.w3.org/2000/svg">
<path d="M15 21.132L8.93486 15.0651L10.1469 13.8326L14.1429 17.8286V3H15.8571V17.8286L19.8514 13.8343L21.0651 15.0651L15 21.132ZM5.76857 27C4.98 27 4.32171 26.736 3.79371 26.208C3.26457 25.6789 3 25.02 3 24.2314V20.0777H4.71429V24.2314C4.71429 24.4943 4.824 24.736 5.04343 24.9566C5.264 25.176 5.50571 25.2857 5.76857 25.2857H24.2314C24.4943 25.2857 24.736 25.176 24.9566 24.9566C25.176 24.736 25.2857 24.4943 25.2857 24.2314V20.0777H27V24.2314C27 25.02 26.736 25.6783 26.208 26.2063C25.6789 26.7354 25.02 27 24.2314 27H5.76857Z" fill="black"/>
</svg>
