<svg width="73" height="55" viewBox="0 0 73 55" fill="none" xmlns="http://www.w3.org/2000/svg">
<g clip-path="url(#clip0_1_67)">
<path d="M-0.000733538 0H72.9992V18.25H-0.000733538V0Z" fill="#FF9933"/>
<path d="M-0.000733538 18.2499H72.9992V36.4999H-0.000733538V18.2499Z" fill="white"/>
<path d="M-0.000733538 36.4994H72.9992V54.7494H-0.000733538V36.4994Z" fill="#128807"/>
<path d="M36.4952 34.6745C40.5269 34.6745 43.7952 31.4062 43.7952 27.3745C43.7952 23.3428 40.5269 20.0745 36.4952 20.0745C32.4635 20.0745 29.1952 23.3428 29.1952 27.3745C29.1952 31.4062 32.4635 34.6745 36.4952 34.6745Z" fill="#000088"/>
<path d="M36.4963 33.763C40.024 33.763 42.8838 30.9032 42.8838 27.3755C42.8838 23.8478 40.024 20.988 36.4963 20.988C32.9686 20.988 30.1088 23.8478 30.1088 27.3755C30.1088 30.9032 32.9686 33.763 36.4963 33.763Z" fill="white"/>
<path d="M36.4923 28.6518C37.1979 28.6518 37.7698 28.0799 37.7698 27.3743C37.7698 26.6688 37.1979 26.0968 36.4923 26.0968C35.7868 26.0968 35.2148 26.6688 35.2148 27.3743C35.2148 28.0799 35.7868 28.6518 36.4923 28.6518Z" fill="#000088"/>
<path d="M42.7796 28.533C42.9595 28.5567 43.1245 28.4301 43.1482 28.2502C43.1719 28.0703 43.0453 27.9053 42.8654 27.8816C42.6855 27.8579 42.5205 27.9846 42.4968 28.1644C42.4731 28.3443 42.5998 28.5093 42.7796 28.533Z" fill="#000088"/>
<path d="M36.4888 33.7589L36.7078 29.9264L36.4888 28.1014L36.2698 29.9264L36.4888 33.7589Z" fill="#000088"/>
<path d="M42.272 30.1212C42.4396 30.1906 42.6317 30.111 42.7012 29.9434C42.7706 29.7758 42.691 29.5836 42.5234 29.5142C42.3558 29.4448 42.1636 29.5243 42.0942 29.692C42.0247 29.8596 42.1043 30.0517 42.272 30.1212Z" fill="#000088"/>
<path d="M34.8411 33.5411L36.0446 29.8959L36.3054 28.0764L35.6215 29.7825L34.8411 33.5411Z" fill="#000088"/>
<path d="M41.3649 31.5235C41.5088 31.6339 41.715 31.6067 41.8255 31.4628C41.9359 31.3189 41.9087 31.1127 41.7648 31.0022C41.6209 30.8918 41.4147 30.9189 41.3042 31.0629C41.1938 31.2068 41.2209 31.413 41.3649 31.5235Z" fill="#000088"/>
<path d="M33.3086 32.903L35.4145 29.6935L36.1373 28.0035L35.0351 29.4745L33.3086 32.903Z" fill="#000088"/>
<path d="M40.1317 32.6414C40.2421 32.7853 40.4483 32.8124 40.5923 32.702C40.7362 32.5916 40.7633 32.3853 40.6529 32.2414C40.5424 32.0975 40.3362 32.0703 40.1923 32.1808C40.0484 32.2912 40.0212 32.4974 40.1317 32.6414Z" fill="#000088"/>
<path d="M31.9831 31.8884L34.8479 29.3333L35.9835 27.888L34.5382 29.0236L31.9831 31.8884Z" fill="#000088"/>
<path d="M38.6445 33.4003C38.714 33.5679 38.9061 33.6475 39.0738 33.5781C39.2414 33.5087 39.321 33.3165 39.2515 33.1489C39.1821 32.9813 38.9899 32.9017 38.8223 32.9711C38.6547 33.0405 38.5751 33.2327 38.6445 33.4003Z" fill="#000088"/>
<path d="M30.9756 30.5652L34.4041 28.8386L35.8751 27.7365L34.1851 28.4593L30.9756 30.5652Z" fill="#000088"/>
<path d="M37.0032 33.7493C37.0269 33.9292 37.1919 34.0558 37.3717 34.0321C37.5516 34.0084 37.6782 33.8434 37.6546 33.6635C37.6309 33.4837 37.4659 33.357 37.286 33.3807C37.1061 33.4044 36.9795 33.5694 37.0032 33.7493Z" fill="#000088"/>
<path d="M30.3326 29.025L34.0912 28.2447L35.7973 27.5608L33.9779 27.8216L30.3326 29.025Z" fill="#000088"/>
<path d="M35.3379 33.6599C35.3142 33.8398 35.4408 34.0048 35.6207 34.0285C35.8006 34.0522 35.9656 33.9256 35.9892 33.7457C36.0129 33.5658 35.8863 33.4008 35.7064 33.3771C35.5266 33.3534 35.3615 33.4801 35.3379 33.6599Z" fill="#000088"/>
<path d="M30.1118 27.3707L33.9443 27.5897L35.7693 27.3707L33.9443 27.1517L30.1118 27.3707Z" fill="#000088"/>
<path d="M33.746 33.1488C33.6766 33.3164 33.7562 33.5086 33.9238 33.578C34.0914 33.6475 34.2836 33.5679 34.353 33.4002C34.4225 33.2326 34.3429 33.0405 34.1752 32.971C34.0076 32.9016 33.8155 32.9812 33.746 33.1488Z" fill="#000088"/>
<path d="M30.3215 25.7195L33.9667 26.9229L35.7862 27.1837L34.0801 26.4999L30.3215 25.7195Z" fill="#000088"/>
<path d="M32.3486 32.2385C32.2382 32.3825 32.2653 32.5887 32.4093 32.6991C32.5532 32.8096 32.7594 32.7824 32.8699 32.6385C32.9803 32.4946 32.9532 32.2883 32.8092 32.1779C32.6653 32.0675 32.4591 32.0946 32.3486 32.2385Z" fill="#000088"/>
<path d="M30.9642 24.1776L34.1737 26.2835L35.8637 27.0063L34.3927 25.9042L30.9642 24.1776Z" fill="#000088"/>
<path d="M31.2389 30.9994C31.095 31.1098 31.0678 31.316 31.1783 31.4599C31.2887 31.6039 31.4949 31.631 31.6389 31.5206C31.7828 31.4101 31.81 31.2039 31.6995 31.06C31.5891 30.9161 31.3829 30.8889 31.2389 30.9994Z" fill="#000088"/>
<path d="M31.9867 22.8557L34.5419 25.7205L35.9872 26.8561L34.8516 25.4108L31.9867 22.8557Z" fill="#000088"/>
<path d="M30.4722 29.5131C30.3045 29.5825 30.2249 29.7747 30.2944 29.9423C30.3638 30.1099 30.556 30.1895 30.7236 30.1201C30.8912 30.0507 30.9708 29.8585 30.9014 29.6909C30.8319 29.5233 30.6398 29.4437 30.4722 29.5131Z" fill="#000088"/>
<path d="M33.3087 21.8423L35.0353 25.2708L36.1375 26.7418L35.4146 25.0518L33.3087 21.8423Z" fill="#000088"/>
<path d="M30.1284 27.8807C29.9486 27.9043 29.8219 28.0693 29.8456 28.2492C29.8693 28.4291 30.0343 28.5557 30.2142 28.532C30.3941 28.5083 30.5207 28.3433 30.497 28.1635C30.4733 27.9836 30.3083 27.857 30.1284 27.8807Z" fill="#000088"/>
<path d="M34.8524 21.2057L35.6328 24.9643L36.3167 26.6704L36.0559 24.8509L34.8524 21.2057Z" fill="#000088"/>
<path d="M30.2136 26.2139C30.0338 26.1902 29.8687 26.3168 29.8451 26.4967C29.8214 26.6766 29.948 26.8416 30.1279 26.8653C30.3078 26.8889 30.4728 26.7623 30.4964 26.5824C30.5201 26.4026 30.3935 26.2376 30.2136 26.2139Z" fill="#000088"/>
<path d="M36.5045 20.988L36.2855 24.8205L36.5045 26.6455L36.7235 24.8205L36.5045 20.988Z" fill="#000088"/>
<path d="M30.7213 24.6257C30.5537 24.5563 30.3615 24.6359 30.2921 24.8035C30.2227 24.9711 30.3023 25.1633 30.4699 25.2327C30.6375 25.3021 30.8297 25.2225 30.8991 25.0549C30.9685 24.8873 30.8889 24.6951 30.7213 24.6257Z" fill="#000088"/>
<path d="M38.1521 21.2058L36.9487 24.851L36.6879 26.6705L37.3718 24.9644L38.1521 21.2058Z" fill="#000088"/>
<path d="M31.6394 23.2234C31.4955 23.113 31.2893 23.1401 31.1788 23.2841C31.0684 23.428 31.0955 23.6342 31.2395 23.7447C31.3834 23.8551 31.5896 23.828 31.7001 23.684C31.8105 23.5401 31.7834 23.3339 31.6394 23.2234Z" fill="#000088"/>
<path d="M39.6957 21.8438L37.5898 25.0534L36.867 26.7434L37.9691 25.2724L39.6957 21.8438Z" fill="#000088"/>
<path d="M32.8726 22.1055C32.7622 21.9616 32.556 21.9344 32.412 22.0449C32.2681 22.1553 32.2409 22.3615 32.3514 22.5055C32.4618 22.6494 32.668 22.6766 32.812 22.5661C32.9559 22.4557 32.9831 22.2495 32.8726 22.1055Z" fill="#000088"/>
<path d="M41.0212 22.8585L38.1563 25.4136L37.0207 26.8589L38.4661 25.7233L41.0212 22.8585Z" fill="#000088"/>
<path d="M34.3485 21.3456C34.2791 21.178 34.0869 21.0984 33.9193 21.1678C33.7517 21.2372 33.6721 21.4294 33.7415 21.597C33.8109 21.7646 34.0031 21.8442 34.1707 21.7748C34.3383 21.7054 34.4179 21.5132 34.3485 21.3456Z" fill="#000088"/>
<path d="M42.0176 24.1802L38.589 25.9068L37.118 27.009L38.808 26.2861L42.0176 24.1802Z" fill="#000088"/>
<path d="M35.99 20.9976C35.9663 20.8177 35.8013 20.6911 35.6214 20.7148C35.4415 20.7385 35.3149 20.9035 35.3386 21.0834C35.3623 21.2632 35.5273 21.3898 35.7072 21.3662C35.887 21.3425 36.0137 21.1775 35.99 20.9976Z" fill="#000088"/>
<path d="M42.6605 25.7218L38.9019 26.5022L37.1958 27.1861L39.0153 26.9253L42.6605 25.7218Z" fill="#000088"/>
<path d="M37.6592 21.087C37.6829 20.9071 37.5563 20.7421 37.3764 20.7184C37.1965 20.6947 37.0315 20.8213 37.0078 21.0012C36.9841 21.1811 37.1108 21.3461 37.2906 21.3698C37.4705 21.3934 37.6355 21.2668 37.6592 21.087Z" fill="#000088"/>
<path d="M42.8853 27.3762L39.0528 27.1572L37.2278 27.3762L39.0528 27.5952L42.8853 27.3762Z" fill="#000088"/>
<path d="M39.2471 21.5981C39.3165 21.4304 39.237 21.2383 39.0693 21.1689C38.9017 21.0994 38.7096 21.179 38.6401 21.3466C38.5707 21.5143 38.6503 21.7064 38.8179 21.7758C38.9855 21.8453 39.1777 21.7657 39.2471 21.5981Z" fill="#000088"/>
<path d="M42.6717 29.0274L39.0265 27.824L37.207 27.5631L38.9131 28.247L42.6717 29.0274Z" fill="#000088"/>
<path d="M40.6522 22.5069C40.7627 22.3629 40.7355 22.1567 40.5916 22.0463C40.4476 21.9358 40.2414 21.963 40.131 22.1069C40.0205 22.2509 40.0477 22.4571 40.1916 22.5675C40.3356 22.678 40.5418 22.6508 40.6522 22.5069Z" fill="#000088"/>
<path d="M42.0367 30.5678L38.8272 28.4619L37.1372 27.7391L38.6082 28.8412L42.0367 30.5678Z" fill="#000088"/>
<path d="M41.7618 23.7465C41.9057 23.6361 41.9329 23.4299 41.8225 23.286C41.712 23.142 41.5058 23.1149 41.3619 23.2253C41.2179 23.3358 41.1908 23.542 41.3012 23.6859C41.4117 23.8298 41.6179 23.857 41.7618 23.7465Z" fill="#000088"/>
<path d="M41.014 31.8902L38.4589 29.0254L37.0136 27.8898L38.1492 29.3351L41.014 31.8902Z" fill="#000088"/>
<path d="M42.5247 25.2348C42.6923 25.1653 42.7719 24.9732 42.7024 24.8056C42.633 24.6379 42.4409 24.5583 42.2732 24.6278C42.1056 24.6972 42.026 24.8894 42.0955 25.057C42.1649 25.2246 42.3571 25.3042 42.5247 25.2348Z" fill="#000088"/>
<path d="M39.6881 32.9056L37.9615 29.477L36.8594 28.006L37.5822 29.696L39.6881 32.9056Z" fill="#000088"/>
<path d="M42.8723 26.8672C43.0522 26.8435 43.1788 26.6785 43.1551 26.4986C43.1314 26.3188 42.9664 26.1921 42.7865 26.2158C42.6067 26.2395 42.48 26.4045 42.5037 26.5844C42.5274 26.7643 42.6924 26.8909 42.8723 26.8672Z" fill="#000088"/>
<path d="M38.1483 33.5422L37.3679 29.7836L36.684 28.0774L36.9448 29.8969L38.1483 33.5422Z" fill="#000088"/>
</g>
<defs>
<clipPath id="clip0_1_67">
<rect width="72.8889" height="54.6667" fill="white" transform="scale(1.00152)"/>
</clipPath>
</defs>
</svg>
