<svg width="32" height="32" viewBox="0 0 32 32" fill="none" xmlns="http://www.w3.org/2000/svg">
<path d="M16.0015 20.5C18.6375 20.5 20.7744 18.4853 20.7744 16C20.7744 13.5147 18.6375 11.5 16.0015 11.5C13.3654 11.5 11.2285 13.5147 11.2285 16C11.2285 18.4853 13.3654 20.5 16.0015 20.5Z" stroke="#F8F9FC" stroke-width="2"/>
<path d="M2.73328 13.9588C3.48509 14.4042 3.96883 15.1628 3.96883 15.9998C3.96881 16.837 3.48508 17.5957 2.73328 18.041C2.22168 18.344 1.89206 18.5863 1.65755 18.8744C1.14381 19.5058 0.917078 20.3035 1.02724 21.0924C1.10984 21.684 1.48049 22.2892 2.22179 23.4999C2.96311 24.7104 3.33376 25.3156 3.83589 25.6789C4.5054 26.1633 5.35158 26.377 6.18828 26.2732C6.57016 26.2258 6.95742 26.0777 7.49148 25.8116C8.27659 25.4204 9.21549 25.4048 9.98452 25.8235C10.7535 26.2421 11.2085 27.0165 11.2417 27.853C11.2643 28.4223 11.3219 28.8125 11.4694 29.1481C11.7923 29.8831 12.4118 30.4672 13.1914 30.7717C13.7762 31 14.5175 31 16.0001 31C17.4827 31 18.224 31 18.8088 30.7717C19.5884 30.4672 20.2079 29.8831 20.5309 29.1481C20.6782 28.8125 20.736 28.4222 20.7585 27.8531C20.7916 27.0164 21.2467 26.2421 22.0157 25.8235C22.7847 25.405 23.7235 25.4206 24.5085 25.8118C25.0427 26.0779 25.43 26.2259 25.8118 26.2733C26.6485 26.3773 27.4948 26.1634 28.1642 25.679C28.6664 25.3159 29.037 24.7105 29.7784 23.5C30.1084 22.9611 30.365 22.5421 30.5553 22.1908M29.2668 18.0412C28.515 17.5958 28.0314 16.8372 28.0312 16.0002C28.0312 15.163 28.515 14.4042 29.2668 13.9588C29.7784 13.6558 30.1079 13.4136 30.3424 13.1254C30.8562 12.4942 31.0829 11.6964 30.9728 10.9075C30.8902 10.3159 30.5195 9.71062 29.7781 8.50008C29.0369 7.28952 28.6662 6.68425 28.1641 6.32098C27.4946 5.83661 26.6484 5.62285 25.8117 5.7267C25.4298 5.77411 25.0426 5.9221 24.5085 6.18824C23.7233 6.57946 22.7845 6.59506 22.0156 6.17644C21.2467 5.75785 20.7916 4.98355 20.7585 4.14705C20.736 3.57778 20.6782 3.18753 20.5309 2.85195C20.2079 2.11687 19.5884 1.53285 18.8088 1.22836C18.224 1 17.4827 1 16.0001 1C14.5175 1 13.7762 1 13.1914 1.22836C12.4118 1.53285 11.7923 2.11687 11.4694 2.85195C11.3219 3.1875 11.2643 3.57772 11.2417 4.14691C11.2085 4.98349 10.7534 5.75787 9.98446 6.17644C9.21548 6.59503 8.27666 6.57938 7.49162 6.1882C6.9575 5.92204 6.57021 5.77404 6.18829 5.72662C5.3516 5.62278 4.50542 5.83654 3.8359 6.3209C3.33377 6.68417 2.96312 7.28945 2.22181 8.5C1.89179 9.03894 1.63523 9.45788 1.44484 9.80909" stroke="#F8F9FC" stroke-width="2" stroke-linecap="round"/>
</svg>
