<svg width="30" height="30" viewBox="0 0 30 30" fill="none" xmlns="http://www.w3.org/2000/svg">
<path d="M8.8944 2.04831C11.5131 0.765335 13.0753 0 14.9998 0C16.9242 0 18.4864 0.765335 21.1051 2.04831L25.2486 4.07765C26.5804 4.72997 27.6593 5.25832 28.3998 5.7337C28.7746 5.97429 29.1376 6.24705 29.4177 6.57587C29.7054 6.91371 29.9995 7.42608 29.9995 8.11532C29.9995 8.80456 29.7054 9.31693 29.4177 9.65477C29.1376 9.98359 28.7746 10.2563 28.3998 10.4969C27.6593 10.9723 26.5804 11.5007 25.2486 12.153L21.1051 14.1823C18.4864 15.4652 16.9242 16.2306 14.9998 16.2306C13.0753 16.2306 11.5131 15.4652 8.89441 14.1823L4.75102 12.153C3.41907 11.5007 2.34024 10.9723 1.5997 10.4969C1.2249 10.2563 0.861823 9.98359 0.581865 9.65477C0.294204 9.31693 0 8.80456 0 8.11532C0 7.42608 0.294204 6.91371 0.581865 6.57587C0.861823 6.24705 1.2249 5.97429 1.5997 5.7337C2.34026 5.25832 3.41907 4.72997 4.75103 4.07763L8.8944 2.04831Z" fill="white"/>
<path opacity="0.7" d="M1.74762 13.9988L1.74275 13.9937C1.31247 13.5242 0.652483 13.5688 0.267317 14.0945C-0.118616 14.6212 -0.0822822 15.4319 0.347939 15.9045C0.347939 15.9045 0.347506 15.904 1.04631 14.9501L0.347939 15.9045L0.349446 15.906L0.351901 15.9087L0.358348 15.9157L0.377464 15.9363C0.39298 15.9527 0.414007 15.9747 0.440546 16.0017C0.493653 16.056 0.568847 16.1308 0.666171 16.2229C0.860805 16.4071 1.14406 16.6603 1.51601 16.9557C2.25984 17.5463 3.35918 18.3063 4.81408 19.0187L8.73282 20.938L8.89421 21.0171C11.5129 22.3 13.075 23.0654 14.9996 23.0654C16.9241 23.0654 18.4863 22.3 21.1049 21.0171L21.2663 20.938L25.1851 19.0187C26.64 18.3063 27.7394 17.5463 28.4831 16.9557C28.8551 16.6603 29.1383 16.4071 29.333 16.2229C29.4304 16.1308 29.5054 16.056 29.5586 16.0017C29.5851 15.9747 29.6062 15.9527 29.6217 15.9363L29.6408 15.9157L29.6472 15.9087L29.6497 15.906L29.6517 15.904C30.0818 15.4314 30.1177 14.6212 29.7319 14.0945C29.3466 13.5688 28.6869 13.5239 28.2567 13.9934L28.2544 13.9959L28.2516 13.9988C28.2454 14.0055 28.2339 14.0174 28.2171 14.0345C28.1836 14.0689 28.1289 14.1234 28.0532 14.1951C27.9014 14.3388 27.6651 14.5508 27.3443 14.8056C26.7026 15.315 25.7238 15.9949 24.4077 16.6393L20.489 18.5586C17.6637 19.9423 16.4792 20.5027 14.9996 20.5027C13.52 20.5027 12.3354 19.9423 9.51014 18.5586L5.59141 16.6393C4.27536 15.9949 3.29647 15.315 2.65485 14.8056C2.33405 14.5508 2.09773 14.3388 1.94599 14.1951C1.87014 14.1234 1.81546 14.0689 1.78196 14.0345C1.76521 14.0174 1.75377 14.0055 1.74762 13.9988Z" fill="white"/>
<path opacity="0.4" d="M1.74253 20.9278C1.31223 20.4583 0.652483 20.5033 0.267317 21.029C-0.118616 21.5557 -0.0822822 22.3664 0.347939 22.8389L0.349446 22.8405L0.351901 22.8432L0.358348 22.8502L0.377464 22.8705C0.39298 22.8871 0.414007 22.909 0.440546 22.9361C0.493653 22.9905 0.568847 23.0653 0.666171 23.1574C0.860805 23.3416 1.14406 23.5948 1.51601 23.8902C2.25984 24.4808 3.35918 25.2406 4.81408 25.9532L8.73282 27.8725L8.89421 27.9516C11.5129 29.2345 13.075 29.9999 14.9996 29.9999C16.9241 29.9999 18.4863 29.2345 21.1049 27.9516L21.2663 27.8725L25.1851 25.9532C26.64 25.2406 27.7394 24.4808 28.4831 23.8902C28.8551 23.5948 29.1383 23.3416 29.333 23.1574C29.4304 23.0653 29.5054 22.9905 29.5586 22.9361C29.5851 22.909 29.6062 22.8871 29.6217 22.8705L29.6408 22.8502L29.6472 22.8432L29.6497 22.8405L29.6517 22.8384C30.0818 22.3658 30.1177 21.5557 29.7319 21.029C29.3466 20.5033 28.6869 20.4583 28.2567 20.9278L28.2544 20.9302L28.2516 20.9333C28.2454 20.9398 28.2339 20.9519 28.2171 20.969C28.1836 21.0032 28.1289 21.0578 28.0532 21.1296C27.9014 21.2733 27.6651 21.4853 27.3443 21.74C26.7026 22.2495 25.7238 22.9291 24.4077 23.5738L20.489 25.4931C17.6637 26.8768 16.4792 27.4372 14.9996 27.4372C13.52 27.4372 12.3354 26.8768 9.51014 25.4931L5.59141 23.5738C4.27536 22.9291 3.29647 22.2495 2.65485 21.74C2.33405 21.4853 2.09773 21.2733 1.94599 21.1296C1.87014 21.0578 1.81546 21.0032 1.78196 20.969C1.76521 20.9519 1.75377 20.9398 1.74762 20.9333L1.74253 20.9278Z" fill="white"/>
</svg>
