<svg width="30" height="30" viewBox="0 0 30 30" fill="none" xmlns="http://www.w3.org/2000/svg">
<path d="M16.875 12.1875C16.875 11.9389 16.7762 11.7004 16.6004 11.5246C16.4246 11.3488 16.1861 11.25 15.9375 11.25H8.4375C8.18886 11.25 7.9504 11.3488 7.77459 11.5246C7.59877 11.7004 7.5 11.9389 7.5 12.1875C7.5 12.4361 7.59877 12.6746 7.77459 12.8504C7.9504 13.0262 8.18886 13.125 8.4375 13.125H15.9375C16.1861 13.125 16.4246 13.0262 16.6004 12.8504C16.7762 12.6746 16.875 12.4361 16.875 12.1875ZM15.625 15.9375C15.625 15.6889 15.5262 15.4504 15.3504 15.2746C15.1746 15.0988 14.9361 15 14.6875 15H8.4375C8.18886 15 7.9504 15.0988 7.77459 15.2746C7.59877 15.4504 7.5 15.6889 7.5 15.9375C7.5 16.1861 7.59877 16.4246 7.77459 16.6004C7.9504 16.7762 8.18886 16.875 8.4375 16.875H14.6875C14.9361 16.875 15.1746 16.7762 15.3504 16.6004C15.5262 16.4246 15.625 16.1861 15.625 15.9375ZM15.9375 18.75C16.1861 18.75 16.4246 18.8488 16.6004 19.0246C16.7762 19.2004 16.875 19.4389 16.875 19.6875C16.875 19.9361 16.7762 20.1746 16.6004 20.3504C16.4246 20.5262 16.1861 20.625 15.9375 20.625H8.4375C8.18886 20.625 7.9504 20.5262 7.77459 20.3504C7.59877 20.1746 7.5 19.9361 7.5 19.6875C7.5 19.4389 7.59877 19.2004 7.77459 19.0246C7.9504 18.8488 8.18886 18.75 8.4375 18.75H15.9375Z" fill="white"/>
<path fillRule="evenodd" clip-rule="evenodd" d="M7.5 27.1875H23.75C24.6617 27.1875 25.536 26.8254 26.1807 26.1807C26.8253 25.5361 27.1875 24.6617 27.1875 23.75V16.875C27.1875 16.6264 27.0887 16.3879 26.9129 16.2121C26.7371 16.0363 26.4986 15.9375 26.25 15.9375H22.1875V6.17878C22.1875 4.40003 20.1763 3.36503 18.7288 4.39878L18.51 4.55503C18.031 4.89506 17.4579 5.07731 16.8705 5.07641C16.283 5.07552 15.7105 4.89152 15.2325 4.55003C14.4345 3.98211 13.4794 3.67694 12.5 3.67694C11.5206 3.67694 10.5655 3.98211 9.7675 4.55003C9.28953 4.89152 8.71698 5.07552 8.12955 5.07641C7.54212 5.07731 6.96902 4.89506 6.49 4.55503L6.27125 4.39878C4.82375 3.36503 2.8125 4.39878 2.8125 6.17878V22.5C2.8125 23.7432 3.30636 24.9355 4.18544 25.8146C5.06451 26.6937 6.2568 27.1875 7.5 27.1875ZM10.8575 6.07503C11.3374 5.73433 11.9114 5.55131 12.5 5.55131C13.0886 5.55131 13.6626 5.73433 14.1425 6.07503C14.9384 6.64393 15.8919 6.95029 16.8702 6.95141C17.8485 6.95253 18.8028 6.64835 19.6 6.08128L19.8187 5.92503C19.8654 5.89179 19.9204 5.87203 19.9775 5.8679C20.0347 5.86378 20.0919 5.87546 20.1428 5.90165C20.1938 5.92785 20.2366 5.96755 20.2665 6.01643C20.2964 6.06531 20.3123 6.12147 20.3125 6.17878V23.75C20.3125 24.3125 20.4475 24.8438 20.6875 25.3125H7.5C6.75408 25.3125 6.03871 25.0162 5.51126 24.4888C4.98382 23.9613 4.6875 23.2459 4.6875 22.5V6.17878C4.68765 6.12147 4.70356 6.06531 4.73348 6.01643C4.7634 5.96755 4.80619 5.92785 4.85716 5.90165C4.90813 5.87546 4.96532 5.86378 5.02248 5.8679C5.07964 5.87203 5.13457 5.89179 5.18125 5.92503L5.4 6.08128C6.19718 6.64835 7.15145 6.95253 8.12975 6.95141C9.10805 6.95029 10.0616 6.64393 10.8575 6.07503ZM22.1875 23.75V17.8125H25.3125V23.75C25.3125 24.1644 25.1479 24.5619 24.8549 24.8549C24.5618 25.1479 24.1644 25.3125 23.75 25.3125C23.3356 25.3125 22.9382 25.1479 22.6451 24.8549C22.3521 24.5619 22.1875 24.1644 22.1875 23.75Z" fill="white"/>
</svg>
