<svg width="148" height="82" viewBox="0 0 148 82" fill="none" xmlns="http://www.w3.org/2000/svg">
<path d="M67.8945 11.0483C70.5133 9.76535 72.0755 9 74 9C75.9245 9 77.4867 9.76535 80.1055 11.0483L84.249 13.0777C85.5808 13.73 86.6597 14.2584 87.4002 14.7338C87.775 14.9744 88.1381 15.2472 88.4181 15.576C88.7059 15.9138 89 16.4262 89 17.1155C89 17.8047 88.7059 18.3171 88.4181 18.6549C88.1381 18.9837 87.775 19.2565 87.4002 19.4971C86.6597 19.9725 85.5808 20.5008 84.249 21.1532L80.1055 23.1826C77.4867 24.4655 75.9245 25.2309 74 25.2309C72.0755 25.2309 70.5133 24.4655 67.8946 23.1826L63.7511 21.1532C62.4191 20.5009 61.3403 19.9725 60.5997 19.4971C60.2249 19.2565 59.8618 18.9837 59.5819 18.6549C59.2942 18.3171 59 17.8047 59 17.1155C59 16.4262 59.2942 15.9138 59.5819 15.576C59.8618 15.2472 60.2249 14.9744 60.5997 14.7338C61.3403 14.2584 62.4191 13.73 63.7511 13.0777L67.8945 11.0483Z" fill="#2B2E64"/>
<path opacity="0.7" d="M60.7476 22.9991L60.7428 22.9939C60.3125 22.5244 59.6525 22.569 59.2673 23.0947C58.8814 23.6215 58.9177 24.4322 59.3479 24.9047C59.3479 24.9047 59.3475 24.9042 60.0463 23.9504L59.3479 24.9047L59.3495 24.9063L59.3519 24.909L59.3584 24.916L59.3775 24.9365C59.393 24.9529 59.414 24.975 59.4406 25.0019C59.4937 25.0563 59.5689 25.1311 59.6662 25.2232C59.8608 25.4074 60.1441 25.6606 60.516 25.956C61.2599 26.5466 62.3592 27.3066 63.8142 28.019L67.733 29.9384L67.8944 30.0175C70.5131 31.3004 72.0753 32.0658 73.9999 32.0658C75.9243 32.0658 77.4866 31.3004 80.1052 30.0175L80.2667 29.9384L84.1855 28.019C85.6404 27.3066 86.7398 26.5466 87.4835 25.956C87.8555 25.6606 88.1388 25.4074 88.3334 25.2232C88.4308 25.1311 88.5059 25.0563 88.5591 25.0019C88.5856 24.975 88.6067 24.9529 88.6221 24.9365L88.6413 24.916L88.6477 24.909L88.6502 24.9063L88.6521 24.9042C89.0823 24.4316 89.1182 23.6215 88.7324 23.0947C88.3471 22.569 87.6874 22.5241 87.2572 22.9936L87.2548 22.9961L87.252 22.9991C87.2459 23.0057 87.2343 23.0177 87.2176 23.0348C87.1841 23.0691 87.1294 23.1236 87.0536 23.1954C86.9018 23.339 86.6656 23.5511 86.3448 23.8058C85.7031 24.3153 84.7242 24.9951 83.4081 25.6396L79.4893 27.5589C76.664 28.9426 75.4795 29.503 73.9999 29.503C72.5202 29.503 71.3356 28.9426 68.5103 27.5589L64.5915 25.6396C63.2754 24.9951 62.2965 24.3153 61.6549 23.8058C61.3341 23.5511 61.0978 23.339 60.946 23.1954C60.8702 23.1236 60.8155 23.0691 60.782 23.0348C60.7652 23.0177 60.7538 23.0057 60.7476 22.9991Z" fill="#2B2E64"/>
<path opacity="0.4" d="M60.7426 29.9282C60.3123 29.4587 59.6525 29.5036 59.2673 30.0293C58.8814 30.556 58.9177 31.3667 59.3479 31.8393L59.3495 31.8408L59.3519 31.8436L59.3584 31.8506L59.3775 31.8709C59.393 31.8875 59.414 31.9094 59.4406 31.9365C59.4937 31.9908 59.5689 32.0657 59.6662 32.1578C59.8608 32.3419 60.1441 32.5951 60.516 32.8906C61.2599 33.4812 62.3592 34.241 63.8142 34.9536L67.733 36.8729L67.8944 36.952C70.5131 38.235 72.0753 39.0004 73.9999 39.0004C75.9243 39.0004 77.4866 38.235 80.1052 36.952L80.2667 36.8729L84.1855 34.9536C85.6404 34.241 86.7398 33.4812 87.4835 32.8906C87.8555 32.5951 88.1388 32.3419 88.3334 32.1578C88.4308 32.0657 88.5059 31.9908 88.5591 31.9365C88.5856 31.9094 88.6067 31.8875 88.6221 31.8709L88.6413 31.8506L88.6477 31.8436L88.6502 31.8408L88.6521 31.8388C89.0823 31.3662 89.1182 30.556 88.7324 30.0293C88.3471 29.5036 87.6874 29.4587 87.2572 29.9282L87.2548 29.9305L87.252 29.9336C87.2459 29.9401 87.2343 29.9522 87.2176 29.9693C87.1841 30.0035 87.1294 30.0582 87.0536 30.1299C86.9018 30.2736 86.6656 30.4856 86.3448 30.7404C85.7031 31.2499 84.7242 31.9295 83.4081 32.5741L79.4893 34.4935C76.664 35.8772 75.4795 36.4376 73.9999 36.4376C72.5202 36.4376 71.3356 35.8772 68.5103 34.4935L64.5915 32.5741C63.2754 31.9295 62.2965 31.2499 61.6549 30.7404C61.3341 30.4856 61.0978 30.2736 60.946 30.1299C60.8702 30.0582 60.8155 30.0035 60.782 29.9693C60.7652 29.9522 60.7538 29.9401 60.7476 29.9336L60.7426 29.9282Z" fill="#2B2E64"/>
</svg>
