<svg width="148" height="82" viewBox="0 0 148 82" fill="none" xmlns="http://www.w3.org/2000/svg">
<path d="M81.5 36.5C80.4583 36.5 79.5729 36.1354 78.8438 35.4062C78.1146 34.6771 77.75 33.7917 77.75 32.75C77.75 32.6042 77.7604 32.4529 77.7812 32.2962C77.8021 32.1396 77.8333 31.9992 77.875 31.875L69.0625 26.75C68.7083 27.0625 68.3125 27.3075 67.875 27.485C67.4375 27.6625 66.9792 27.7508 66.5 27.75C65.4583 27.75 64.5729 27.3854 63.8438 26.6562C63.1146 25.9271 62.75 25.0417 62.75 24C62.75 22.9583 63.1146 22.0729 63.8438 21.3438C64.5729 20.6146 65.4583 20.25 66.5 20.25C66.9792 20.25 67.4375 20.3388 67.875 20.5163C68.3125 20.6938 68.7083 20.9383 69.0625 21.25L77.875 16.125C77.8333 16 77.8021 15.8596 77.7812 15.7037C77.7604 15.5479 77.75 15.3967 77.75 15.25C77.75 14.2083 78.1146 13.3229 78.8438 12.5938C79.5729 11.8646 80.4583 11.5 81.5 11.5C82.5417 11.5 83.4271 11.8646 84.1562 12.5938C84.8854 13.3229 85.25 14.2083 85.25 15.25C85.25 16.2917 84.8854 17.1771 84.1562 17.9062C83.4271 18.6354 82.5417 19 81.5 19C81.0208 19 80.5625 18.9117 80.125 18.735C79.6875 18.5583 79.2917 18.3133 78.9375 18L70.125 23.125C70.1667 23.25 70.1979 23.3908 70.2188 23.5475C70.2396 23.7042 70.25 23.855 70.25 24C70.25 24.1458 70.2396 24.2971 70.2188 24.4537C70.1979 24.6104 70.1667 24.7508 70.125 24.875L78.9375 30C79.2917 29.6875 79.6875 29.4429 80.125 29.2662C80.5625 29.0896 81.0208 29.0008 81.5 29C82.5417 29 83.4271 29.3646 84.1562 30.0938C84.8854 30.8229 85.25 31.7083 85.25 32.75C85.25 33.7917 84.8854 34.6771 84.1562 35.4062C83.4271 36.1354 82.5417 36.5 81.5 36.5Z" fill="#2B2E64"/>
</svg>
