<svg width="148" height="82" viewBox="0 0 148 82" fill="none" xmlns="http://www.w3.org/2000/svg">
<path d="M75.5207 32.2791L80.7772 27.0225C81.0526 26.7472 81.2716 26.4218 81.4343 26.0463C81.597 25.6708 81.6783 25.2703 81.6783 24.8448C81.6783 23.9937 81.378 23.2678 80.7772 22.6671C80.1765 22.0663 79.4506 21.766 78.5995 21.766C78.1239 21.766 77.6546 21.9036 77.1915 22.179C76.7284 22.4543 76.1715 22.9174 75.5207 23.5682C74.7697 22.8673 74.1815 22.3917 73.7559 22.1414C73.3304 21.8911 72.8924 21.766 72.4418 21.766C71.5907 21.766 70.8648 22.0663 70.2641 22.6671C69.6633 23.2678 69.363 23.9937 69.363 24.8448C69.363 25.2703 69.4443 25.6708 69.607 26.0463C69.7697 26.4218 69.9887 26.7472 70.2641 27.0225L75.5207 32.2791ZM77.398 38.1364C76.8223 38.7121 76.1089 39 75.2578 39C74.4068 39 73.6934 38.7121 73.1176 38.1364L59.9011 24.9199C59.6258 24.6446 59.4068 24.3191 59.2441 23.9437C59.0814 23.5682 59 23.1677 59 22.7422V12.0038C59 11.1777 59.2941 10.4706 59.8824 9.88235C60.4706 9.29412 61.1777 9 62.0038 9H72.7422C73.1677 9 73.5682 9.08135 73.9437 9.24406C74.3191 9.40676 74.6446 9.62578 74.9199 9.90113L88.1364 23.1552C88.7121 23.7309 89 24.438 89 25.2766C89 26.1151 88.7121 26.8223 88.1364 27.398L77.398 38.1364ZM75.2578 36.0338L85.9962 25.2954L72.7422 12.0038H62.0038V22.7422L75.2578 36.0338ZM65.7584 18.0113C66.3842 18.0113 66.9161 17.7922 67.3542 17.3542C67.7922 16.9161 68.0113 16.3842 68.0113 15.7584C68.0113 15.1327 67.7922 14.6008 67.3542 14.1627C66.9161 13.7247 66.3842 13.5056 65.7584 13.5056C65.1327 13.5056 64.6008 13.7247 64.1627 14.1627C63.7247 14.6008 63.5056 15.1327 63.5056 15.7584C63.5056 16.3842 63.7247 16.9161 64.1627 17.3542C64.6008 17.7922 65.1327 18.0113 65.7584 18.0113Z" fill="#2B2E64"/>
</svg>
