<svg width="148" height="82" viewBox="0 0 148 82" fill="none" xmlns="http://www.w3.org/2000/svg">
<path d="M65.255 16.4988H85.255V18.9988H65.255V16.4988ZM67.755 11.5H82.755V14H67.755V11.5ZM85.2463 21.4888H65.2538C64.9241 21.4896 64.5979 21.5553 64.2937 21.6822C63.9895 21.8091 63.7132 21.9947 63.4807 22.2283C63.2483 22.462 63.0641 22.7391 62.9387 23.044C62.8133 23.3488 62.7492 23.6754 62.75 24.005V33.9725C62.7492 34.3021 62.8133 34.6287 62.9387 34.9335C63.0641 35.2384 63.2483 35.5155 63.4807 35.7492C63.7132 35.9828 63.9895 36.1684 64.2937 36.2953C64.5979 36.4222 64.9241 36.4879 65.2538 36.4888H85.2463C85.5759 36.4879 85.9021 36.4222 86.2063 36.2953C86.5105 36.1684 86.7868 35.9828 87.0193 35.7492C87.2518 35.5155 87.436 35.2384 87.5613 34.9335C87.6867 34.6287 87.7508 34.3021 87.75 33.9725V24.005C87.7508 23.6754 87.6867 23.3488 87.5613 23.044C87.436 22.7391 87.2518 22.462 87.0193 22.2283C86.7868 21.9947 86.5105 21.8091 86.2063 21.6822C85.9021 21.5553 85.5759 21.4896 85.2463 21.4888ZM85.25 34H65.25V24H85.25V34Z" fill="#2B2E64"/>
<path d="M74.005 32.7388H76.505V30.2525H79.005V27.7475H76.505V25.2388H74.005V27.7513H71.505V30.2525H74.005V32.7388Z" fill="#2B2E64"/>
</svg>
