<svg width="30" height="30" viewBox="0 0 30 30" fill="none" xmlns="http://www.w3.org/2000/svg">
<path d="M16.5207 23.2791L21.7772 18.0225C22.0526 17.7472 22.2716 17.4218 22.4343 17.0463C22.597 16.6708 22.6783 16.2703 22.6783 15.8448C22.6783 14.9937 22.378 14.2678 21.7772 13.6671C21.1765 13.0663 20.4506 12.766 19.5995 12.766C19.1239 12.766 18.6546 12.9036 18.1915 13.179C17.7284 13.4543 17.1715 13.9174 16.5207 14.5682C15.7697 13.8673 15.1815 13.3917 14.7559 13.1414C14.3304 12.8911 13.8924 12.766 13.4418 12.766C12.5907 12.766 11.8648 13.0663 11.2641 13.6671C10.6633 14.2678 10.363 14.9937 10.363 15.8448C10.363 16.2703 10.4443 16.6708 10.607 17.0463C10.7697 17.4218 10.9887 17.7472 11.2641 18.0225L16.5207 23.2791ZM18.398 29.1364C17.8223 29.7121 17.1089 30 16.2578 30C15.4068 30 14.6934 29.7121 14.1176 29.1364L0.901126 15.9199C0.625782 15.6446 0.406758 15.3191 0.244055 14.9437C0.0813517 14.5682 0 14.1677 0 13.7422V3.00375C0 2.17772 0.294118 1.47059 0.882353 0.882353C1.47059 0.294118 2.17772 0 3.00375 0H13.7422C14.1677 0 14.5682 0.0813517 14.9437 0.244055C15.3191 0.406758 15.6446 0.625782 15.9199 0.901126L29.1364 14.1552C29.7121 14.7309 30 15.438 30 16.2766C30 17.1151 29.7121 17.8223 29.1364 18.398L18.398 29.1364ZM16.2578 27.0338L26.9962 16.2954L13.7422 3.00375H3.00375V13.7422L16.2578 27.0338ZM6.75845 9.01126C7.38423 9.01126 7.91614 8.79224 8.35419 8.35419C8.79224 7.91614 9.01126 7.38423 9.01126 6.75845C9.01126 6.13267 8.79224 5.60075 8.35419 5.1627C7.91614 4.72466 7.38423 4.50563 6.75845 4.50563C6.13267 4.50563 5.60075 4.72466 5.1627 5.1627C4.72466 5.60075 4.50563 6.13267 4.50563 6.75845C4.50563 7.38423 4.72466 7.91614 5.1627 8.35419C5.60075 8.79224 6.13267 9.01126 6.75845 9.01126Z" fill="white"/>
</svg>
