<svg width="23" height="25" viewBox="0 0 23 25" fill="none" xmlns="http://www.w3.org/2000/svg">
<path fillRule="evenodd" clip-rule="evenodd" d="M18.75 8.75C19.7065 8.74995 20.6269 9.11541 21.3228 9.7716C22.0188 10.4278 22.4376 11.3251 22.4938 12.28L22.5 12.5V16.25C22.5 17.05 22.0263 17.6737 21.3975 17.9588L21.25 18.0175V22.5C21.2502 23.1307 21.012 23.7382 20.5831 24.2007C20.1543 24.6632 19.5664 24.9464 18.9375 24.9938L18.75 25H3.75C3.11928 25.0002 2.51179 24.762 2.04931 24.3331C1.58684 23.9043 1.30355 23.3164 1.25625 22.6875L1.25 22.5V18.0188C0.912543 17.9012 0.616054 17.689 0.395948 17.4075C0.175842 17.126 0.0414238 16.7871 0.00874997 16.4313L5.82556e-09 16.25V12.5C-5.32772e-05 11.5435 0.365406 10.6231 1.0216 9.92717C1.6778 9.23124 2.57513 8.81237 3.53 8.75625L3.75 8.75H18.75ZM18.6663 17.125C18.4723 16.9795 18.2403 16.8935 17.9984 16.8775C17.7565 16.8615 17.5151 16.9163 17.3038 17.035L17.1663 17.125L16.8337 17.375C16.2204 17.8353 15.4806 18.0964 14.7142 18.1232C13.9478 18.1501 13.1916 17.9413 12.5475 17.525L12.3337 17.375L12 17.125C11.8061 16.9795 11.574 16.8935 11.3321 16.8775C11.0902 16.8615 10.8489 16.9163 10.6375 17.035L10.5 17.125L10.1663 17.375C9.55298 17.835 8.81345 18.096 8.0473 18.1228C7.28115 18.1496 6.52519 17.941 5.88125 17.525L5.66625 17.375L5.33375 17.125C5.13984 16.9795 4.90779 16.8935 4.66587 16.8775C4.42396 16.8615 4.18262 16.9163 3.97125 17.035L3.83375 17.125L3.75 17.1875V22.5H18.75V17.1875L18.6663 17.125ZM18.75 11.25H3.75C3.41848 11.25 3.10054 11.3817 2.86612 11.6161C2.6317 11.8505 2.5 12.1685 2.5 12.5V15.0063C3.14575 14.5749 3.90949 14.3546 4.68577 14.3759C5.46206 14.3972 6.2126 14.6589 6.83375 15.125L7.16625 15.375C7.38262 15.5373 7.64579 15.625 7.91625 15.625C8.18671 15.625 8.44988 15.5373 8.66625 15.375L9 15.125C9.64911 14.6382 10.4386 14.375 11.25 14.375C12.0614 14.375 12.8509 14.6382 13.5 15.125L13.8338 15.375C14.0501 15.5373 14.3133 15.625 14.5837 15.625C14.8542 15.625 15.1174 15.5373 15.3337 15.375L15.6663 15.125C16.2874 14.6589 17.0379 14.3972 17.8142 14.3759C18.5905 14.3546 19.3543 14.5749 20 15.0063V12.5C20 12.1685 19.8683 11.8505 19.6339 11.6161C19.3995 11.3817 19.0815 11.25 18.75 11.25ZM12 0.25C12.5168 0.653672 12.9966 1.10253 13.4338 1.59125C14.0887 2.3275 15 3.56875 15 5C15 5.99456 14.6049 6.94839 13.9017 7.65165C13.1984 8.35491 12.2446 8.75 11.25 8.75C10.2554 8.75 9.30161 8.35491 8.59835 7.65165C7.89509 6.94839 7.5 5.99456 7.5 5C7.5 3.56875 8.4125 2.3275 9.06625 1.59125C9.50344 1.10253 9.98325 0.653672 10.5 0.25C10.7164 0.0877224 10.9795 0 11.25 0C11.5205 0 11.7836 0.0877224 12 0.25ZM11.25 2.9175C11.1414 3.0261 11.0359 3.13781 10.9338 3.2525C10.3387 3.9225 10 4.55625 10 5C10 5.33152 10.1317 5.64946 10.3661 5.88388C10.6005 6.1183 10.9185 6.25 11.25 6.25C11.5815 6.25 11.8995 6.1183 12.1339 5.88388C12.3683 5.64946 12.5 5.33152 12.5 5C12.5 4.55625 12.1625 3.9225 11.5662 3.2525C11.4641 3.13781 11.3586 3.0261 11.25 2.9175Z" fill="white"/>
</svg>
