<svg width="148" height="82" viewBox="0 0 148 82" fill="none" xmlns="http://www.w3.org/2000/svg">
<path d="M75.875 21.1875C75.875 20.9389 75.7762 20.7004 75.6004 20.5246C75.4246 20.3488 75.1861 20.25 74.9375 20.25H67.4375C67.1889 20.25 66.9504 20.3488 66.7746 20.5246C66.5988 20.7004 66.5 20.9389 66.5 21.1875C66.5 21.4361 66.5988 21.6746 66.7746 21.8504C66.9504 22.0262 67.1889 22.125 67.4375 22.125H74.9375C75.1861 22.125 75.4246 22.0262 75.6004 21.8504C75.7762 21.6746 75.875 21.4361 75.875 21.1875ZM74.625 24.9375C74.625 24.6889 74.5262 24.4504 74.3504 24.2746C74.1746 24.0988 73.9361 24 73.6875 24H67.4375C67.1889 24 66.9504 24.0988 66.7746 24.2746C66.5988 24.4504 66.5 24.6889 66.5 24.9375C66.5 25.1861 66.5988 25.4246 66.7746 25.6004C66.9504 25.7762 67.1889 25.875 67.4375 25.875H73.6875C73.9361 25.875 74.1746 25.7762 74.3504 25.6004C74.5262 25.4246 74.625 25.1861 74.625 24.9375ZM74.9375 27.75C75.1861 27.75 75.4246 27.8488 75.6004 28.0246C75.7762 28.2004 75.875 28.4389 75.875 28.6875C75.875 28.9361 75.7762 29.1746 75.6004 29.3504C75.4246 29.5262 75.1861 29.625 74.9375 29.625H67.4375C67.1889 29.625 66.9504 29.5262 66.7746 29.3504C66.5988 29.1746 66.5 28.9361 66.5 28.6875C66.5 28.4389 66.5988 28.2004 66.7746 28.0246C66.9504 27.8488 67.1889 27.75 67.4375 27.75H74.9375Z" fill="#2B2E64"/>
<path fillRule="evenodd" clip-rule="evenodd" d="M66.5 36.1875H82.75C83.6617 36.1875 84.536 35.8254 85.1807 35.1807C85.8253 34.5361 86.1875 33.6617 86.1875 32.75V25.875C86.1875 25.6264 86.0887 25.3879 85.9129 25.2121C85.7371 25.0363 85.4986 24.9375 85.25 24.9375H81.1875V15.1788C81.1875 13.4 79.1763 12.365 77.7288 13.3988L77.51 13.555C77.031 13.8951 76.4579 14.0773 75.8705 14.0764C75.283 14.0755 74.7105 13.8915 74.2325 13.55C73.4345 12.9821 72.4794 12.6769 71.5 12.6769C70.5206 12.6769 69.5655 12.9821 68.7675 13.55C68.2895 13.8915 67.717 14.0755 67.1295 14.0764C66.5421 14.0773 65.969 13.8951 65.49 13.555L65.2713 13.3988C63.8238 12.365 61.8125 13.3988 61.8125 15.1788V31.5C61.8125 32.7432 62.3064 33.9355 63.1854 34.8146C64.0645 35.6937 65.2568 36.1875 66.5 36.1875ZM69.8575 15.075C70.3374 14.7343 70.9114 14.5513 71.5 14.5513C72.0886 14.5513 72.6626 14.7343 73.1425 15.075C73.9384 15.6439 74.8919 15.9503 75.8702 15.9514C76.8485 15.9525 77.8028 15.6484 78.6 15.0813L78.8187 14.925C78.8654 14.8918 78.9204 14.872 78.9775 14.8679C79.0347 14.8638 79.0919 14.8755 79.1428 14.9017C79.1938 14.9278 79.2366 14.9676 79.2665 15.0164C79.2964 15.0653 79.3123 15.1215 79.3125 15.1788V32.75C79.3125 33.3125 79.4475 33.8438 79.6875 34.3125H66.5C65.7541 34.3125 65.0387 34.0162 64.5113 33.4888C63.9838 32.9613 63.6875 32.2459 63.6875 31.5V15.1788C63.6876 15.1215 63.7036 15.0653 63.7335 15.0164C63.7634 14.9676 63.8062 14.9278 63.8572 14.9017C63.9081 14.8755 63.9653 14.8638 64.0225 14.8679C64.0796 14.872 64.1346 14.8918 64.1813 14.925L64.4 15.0813C65.1972 15.6484 66.1514 15.9525 67.1297 15.9514C68.1081 15.9503 69.0616 15.6439 69.8575 15.075ZM81.1875 32.75V26.8125H84.3125V32.75C84.3125 33.1644 84.1479 33.5619 83.8549 33.8549C83.5618 34.1479 83.1644 34.3125 82.75 34.3125C82.3356 34.3125 81.9382 34.1479 81.6451 33.8549C81.3521 33.5619 81.1875 33.1644 81.1875 32.75Z" fill="#2B2E64"/>
</svg>
