<svg width="148" height="82" viewBox="0 0 148 82" fill="none" xmlns="http://www.w3.org/2000/svg">
<path d="M74.0015 28.5C76.6375 28.5 78.7744 26.4853 78.7744 24C78.7744 21.5147 76.6375 19.5 74.0015 19.5C71.3654 19.5 69.2285 21.5147 69.2285 24C69.2285 26.4853 71.3654 28.5 74.0015 28.5Z" stroke="#334155" stroke-width="2"/>
<path d="M60.7333 21.9588C61.4851 22.4042 61.9688 23.1628 61.9688 23.9998C61.9688 24.837 61.4851 25.5957 60.7333 26.041C60.2217 26.344 59.8921 26.5863 59.6576 26.8744C59.1438 27.5058 58.9171 28.3035 59.0272 29.0924C59.1098 29.684 59.4805 30.2892 60.2218 31.4999C60.9631 32.7104 61.3338 33.3156 61.8359 33.6789C62.5054 34.1633 63.3516 34.377 64.1883 34.2732C64.5702 34.2258 64.9574 34.0777 65.4915 33.8116C66.2766 33.4204 67.2155 33.4048 67.9845 33.8235C68.7535 34.2421 69.2085 35.0165 69.2417 35.853C69.2643 36.4223 69.3219 36.8125 69.4694 37.1481C69.7923 37.8831 70.4118 38.4672 71.1914 38.7717C71.7762 39 72.5175 39 74.0001 39C75.4827 39 76.224 39 76.8088 38.7717C77.5884 38.4672 78.2079 37.8831 78.5309 37.1481C78.6782 36.8125 78.736 36.4222 78.7585 35.8531C78.7916 35.0164 79.2467 34.2421 80.0157 33.8235C80.7847 33.405 81.7235 33.4206 82.5085 33.8118C83.0427 34.0779 83.43 34.2259 83.8118 34.2733C84.6485 34.3773 85.4948 34.1634 86.1642 33.679C86.6664 33.3159 87.037 32.7105 87.7784 31.5C88.1084 30.9611 88.365 30.5421 88.5553 30.1908M87.2668 26.0412C86.515 25.5958 86.0314 24.8372 86.0312 24.0002C86.0312 23.163 86.515 22.4042 87.2668 21.9588C87.7784 21.6558 88.1079 21.4136 88.3424 21.1254C88.8562 20.4942 89.0829 19.6964 88.9728 18.9075C88.8902 18.3159 88.5195 17.7106 87.7781 16.5001C87.0369 15.2895 86.6662 14.6842 86.1641 14.321C85.4946 13.8366 84.6484 13.6229 83.8117 13.7267C83.4298 13.7741 83.0426 13.9221 82.5085 14.1882C81.7233 14.5795 80.7845 14.5951 80.0156 14.1764C79.2467 13.7579 78.7916 12.9836 78.7585 12.147C78.736 11.5778 78.6782 11.1875 78.5309 10.8519C78.2079 10.1169 77.5884 9.53285 76.8088 9.22836C76.224 9 75.4827 9 74.0001 9C72.5175 9 71.7762 9 71.1914 9.22836C70.4118 9.53285 69.7923 10.1169 69.4694 10.8519C69.3219 11.1875 69.2643 11.5777 69.2417 12.1469C69.2085 12.9835 68.7534 13.7579 67.9845 14.1764C67.2155 14.595 66.2767 14.5794 65.4916 14.1882C64.9575 13.922 64.5702 13.774 64.1883 13.7266C63.3516 13.6228 62.5054 13.8365 61.8359 14.3209C61.3338 14.6842 60.9631 15.2895 60.2218 16.5C59.8918 17.0389 59.6352 17.4579 59.4448 17.8091" stroke="#334155" stroke-width="2" stroke-linecap="round"/>
</svg>
